Amstlevar-Italic-opsz8-wght100-wdth50.ufo
<glyph name="exclam" format="2">
  <advance width="622"/>
  <unicode hex="0021"/>
  <outline>
    <contour>
      <point x="131.0" y="64.0" type="qcurve" smooth="yes"/>
      <point x="131.0" y="98.0"/>
      <point x="182.0" y="154.0"/>
      <point x="224.0" y="154.0" type="qcurve" smooth="yes"/>
      <point x="267.0" y="154.0"/>
      <point x="319.0" y="98.0"/>
      <point x="319.0" y="64.0" type="qcurve" smooth="yes"/>
      <point x="319.0" y="27.0"/>
      <point x="267.0" y="-27.0"/>
      <point x="224.0" y="-27.0" type="qcurve" smooth="yes"/>
      <point x="182.0" y="-27.0"/>
      <point x="131.0" y="27.0"/>
    </contour>
    <contour>
      <point x="392" y="1378" type="line" smooth="yes"/>
      <point x="403" y="1445"/>
      <point x="441" y="1557"/>
      <point x="490" y="1557" type="qcurve" smooth="yes"/>
      <point x="534" y="1557"/>
      <point x="552" y="1453"/>
      <point x="533" y="1385" type="qcurve"/>
      <point x="456" y="1044" type="line"/>
      <point x="406" y="871" type="line"/>
      <point x="312" y="477" type="line"/>
      <point x="267" y="486" type="line"/>
      <point x="324" y="886" type="line"/>
      <point x="341" y="1060" type="line"/>
    </contour>
  </outline>
</glyph>
<glyph name="quotedbl" format="2">
  <advance width="573"/>
  <unicode hex="0022"/>
  <outline>
    <contour>
      <point x="185.0" y="944.0" type="line"/>
      <point x="244.0" y="1403.0" type="line" smooth="yes"/>
      <point x="252" y="1462"/>
      <point x="275.0" y="1562.0"/>
      <point x="314.0" y="1562.0" type="qcurve" smooth="yes"/>
      <point x="365.0" y="1562.0"/>
      <point x="355" y="1456"/>
      <point x="340.0" y="1403.0" type="qcurve" smooth="yes"/>
      <point x="207.0" y="940.0" type="line"/>
    </contour>
    <contour>
      <point x="455.0" y="944.0" type="line"/>
      <point x="514.0" y="1403.0" type="line" smooth="yes"/>
      <point x="522" y="1462"/>
      <point x="545.0" y="1562.0"/>
      <point x="584.0" y="1562.0" type="qcurve" smooth="yes"/>
      <point x="634.0" y="1562.0"/>
      <point x="625" y="1456"/>
      <point x="610.0" y="1403.0" type="qcurve" smooth="yes"/>
      <point x="477.0" y="940.0" type="line"/>
    </contour>
  </outline>
</glyph>
<glyph name="numbersign" format="2">
  <advance width="1039"/>
  <unicode hex="0023"/>
  <outline>
    <contour>
      <point x="51" y="465" type="line"/>
      <point x="51" y="541" type="line"/>
      <point x="939" y="541" type="line"/>
      <point x="939" y="465" type="line"/>
    </contour>
    <contour>
      <point x="141" y="954" type="line"/>
      <point x="141" y="1030" type="line"/>
      <point x="1065" y="1030" type="line"/>
      <point x="1065" y="954" type="line"/>
    </contour>
    <contour>
      <point x="102" y="-33" type="line"/>
      <point x="523" y="1519" type="line"/>
      <point x="605" y="1506" type="line"/>
      <point x="182" y="-46" type="line"/>
    </contour>
    <contour>
      <point x="490" y="-33" type="line"/>
      <point x="914" y="1519" type="line"/>
      <point x="993" y="1506" type="line"/>
      <point x="569" y="-46" type="line"/>
    </contour>
  </outline>
</glyph>
<glyph name="dollar" format="2">
  <advance width="734"/>
  <unicode hex="0024"/>
  <outline>
    <contour>
      <point x="-48.0" y="233.0" type="qcurve"/>
      <point x="17" y="308.0" type="line"/>
      <point x="60" y="220.0"/>
      <point x="188" y="96"/>
      <point x="294" y="96.0" type="qcurve" smooth="yes"/>
      <point x="421" y="96.0"/>
      <point x="537" y="254.0"/>
      <point x="537.0" y="369" type="qcurve" smooth="yes"/>
      <point x="537" y="481.0"/>
      <point x="444" y="650.0"/>
      <point x="346" y="741.0" type="qcurve" smooth="yes"/>
      <point x="263" y="819.0"/>
      <point x="117" y="1018.0"/>
      <point x="118" y="1155.0" type="qcurve" smooth="yes"/>
      <point x="120" y="1306.0"/>
      <point x="286" y="1499.0"/>
      <point x="442" y="1499.0" type="qcurve" smooth="yes"/>
      <point x="533" y="1499"/>
      <point x="680" y="1415.0"/>
      <point x="735" y="1342.0" type="qcurve"/>
      <point x="680" y="1268.0" type="line"/>
      <point x="625" y="1337.0"/>
      <point x="485" y="1410"/>
      <point x="417" y="1410.0" type="qcurve" smooth="yes"/>
      <point x="318" y="1410.0"/>
      <point x="216" y="1274.0"/>
      <point x="214" y="1174.0" type="qcurve" smooth="yes"/>
      <point x="212" y="1059.0"/>
      <point x="287" y="948.0"/>
      <point x="387" y="847.0" type="qcurve" smooth="yes"/>
      <point x="503" y="733.0"/>
      <point x="641" y="517.0"/>
      <point x="641.0" y="377" type="qcurve" smooth="yes"/>
      <point x="641" y="226.0"/>
      <point x="443" y="1.0"/>
      <point x="304" y="1.0" type="qcurve" smooth="yes"/>
      <point x="196" y="1.0"/>
      <point x="1" y="125.0"/>
    </contour>
    <contour>
      <point x="204" y="-117.0" type="line"/>
      <point x="239" y="85.0" type="line"/>
      <point x="239" y="85.0" type="line"/>
      <point x="350" y="815.0" type="line"/>
      <point x="405" y="775.0" type="line"/>
      <point x="300" y="85.0" type="line"/>
      <point x="301" y="85.0" type="line"/>
      <point x="269" y="-125.0" type="line"/>
    </contour>
    <contour>
      <point x="462" y="1602.0" type="line"/>
      <point x="521" y="1598.0" type="line"/>
      <point x="498" y="1419.0" type="line"/>
      <point x="498" y="1419.0" type="line"/>
      <point x="405" y="775.0" type="line"/>
      <point x="349" y="815.0" type="line"/>
      <point x="436" y="1419.0" type="line"/>
      <point x="436" y="1419.0" type="line"/>
    </contour>
  </outline>
</glyph>
<glyph name="percent" format="2">
  <advance width="1323"/>
  <unicode hex="0025"/>
  <outline>
    <contour>
      <point x="113" y="1071" type="qcurve" smooth="yes"/>
      <point x="156" y="1275"/>
      <point x="339" y="1509"/>
      <point x="467" y="1509" type="qcurve" smooth="yes"/>
      <point x="589" y="1509"/>
      <point x="658" y="1274"/>
      <point x="617" y="1072" type="qcurve" smooth="yes"/>
      <point x="578" y="863"/>
      <point x="386" y="629"/>
      <point x="270" y="629" type="qcurve" smooth="yes"/>
      <point x="154" y="629"/>
      <point x="70" y="865"/>
    </contour>
    <contour>
      <point x="215" y="1069" type="qcurve" smooth="yes"/>
      <point x="176" y="885"/>
      <point x="201" y="713"/>
      <point x="286" y="713" type="qcurve" smooth="yes"/>
      <point x="371" y="713"/>
      <point x="470" y="889"/>
      <point x="508" y="1072" type="qcurve" smooth="yes"/>
      <point x="543" y="1239"/>
      <point x="530" y="1421"/>
      <point x="447" y="1422" type="qcurve" smooth="yes"/>
      <point x="364" y="1423"/>
      <point x="254" y="1242"/>
    </contour>
    <contour>
      <point x="241" y="29" type="line"/>
      <point x="1052" y="1533" type="line"/>
      <point x="1123" y="1475" type="line"/>
      <point x="312" y="-29" type="line"/>
    </contour>
    <contour>
      <point x="741" y="425" type="qcurve" smooth="yes"/>
      <point x="784" y="629"/>
      <point x="967" y="863"/>
      <point x="1095" y="863" type="qcurve" smooth="yes"/>
      <point x="1217" y="863"/>
      <point x="1286" y="628"/>
      <point x="1245" y="426" type="qcurve" smooth="yes"/>
      <point x="1206" y="217"/>
      <point x="1014" y="-17"/>
      <point x="898" y="-17" type="qcurve" smooth="yes"/>
      <point x="782" y="-17"/>
      <point x="698" y="219"/>
    </contour>
    <contour>
      <point x="843" y="423" type="qcurve" smooth="yes"/>
      <point x="804" y="239"/>
      <point x="829" y="67"/>
      <point x="914" y="67" type="qcurve" smooth="yes"/>
      <point x="999" y="67"/>
      <point x="1098" y="243"/>
      <point x="1136" y="426" type="qcurve" smooth="yes"/>
      <point x="1171" y="593"/>
      <point x="1158" y="775"/>
      <point x="1075" y="776" type="qcurve" smooth="yes"/>
      <point x="992" y="777"/>
      <point x="882" y="596"/>
    </contour>
  </outline>
</glyph>
<glyph name="ampersand" format="2">
  <advance width="1101"/>
  <unicode hex="0026"/>
  <outline>
    <contour>
      <point x="703" y="-11" type="line"/>
      <point x="642" y="159" type="line"/>
      <point x="571" y="76"/>
      <point x="409" y="-22"/>
      <point x="296" y="-13" type="qcurve" smooth="yes"/>
      <point x="159" y="-2"/>
      <point x="14" y="216"/>
      <point x="53" y="417" type="qcurve" smooth="yes"/>
      <point x="86" y="587"/>
      <point x="296" y="766"/>
      <point x="463" y="793" type="qcurve"/>
      <point x="364" y="844"/>
      <point x="255" y="1086"/>
      <point x="284" y="1246" type="qcurve" smooth="yes"/>
      <point x="314" y="1410"/>
      <point x="516" y="1560"/>
      <point x="621" y="1560" type="qcurve" smooth="yes"/>
      <point x="687" y="1560"/>
      <point x="815" y="1498"/>
      <point x="824" y="1498" type="qcurve" smooth="yes"/>
      <point x="830" y="1498"/>
      <point x="844" y="1507"/>
      <point x="848" y="1524" type="qcurve"/>
      <point x="903" y="1524" type="line"/>
      <point x="825" y="1131" type="line"/>
      <point x="756" y="1131" type="line"/>
      <point x="774" y="1306" type="line" smooth="yes"/>
      <point x="783" y="1396"/>
      <point x="698" y="1477"/>
      <point x="623" y="1477" type="qcurve" smooth="yes"/>
      <point x="524" y="1477"/>
      <point x="412" y="1329"/>
      <point x="393" y="1219" type="qcurve" smooth="yes"/>
      <point x="362" y="1055"/>
      <point x="503" y="809"/>
      <point x="683" y="801" type="qcurve" smooth="yes"/>
      <point x="848" y="794"/>
      <point x="1010" y="833"/>
      <point x="1072" y="896" type="qcurve"/>
      <point x="1082" y="874" type="line"/>
      <point x="1062" y="803"/>
      <point x="976" y="708"/>
      <point x="911" y="709" type="qcurve" smooth="yes"/>
      <point x="853" y="709"/>
      <point x="610" y="718"/>
      <point x="538" y="718" type="qcurve" smooth="yes"/>
      <point x="371" y="718"/>
      <point x="190" y="554"/>
      <point x="164" y="401" type="qcurve" smooth="yes"/>
      <point x="138" y="245"/>
      <point x="226" y="83"/>
      <point x="327" y="73" type="qcurve" smooth="yes"/>
      <point x="447" y="61"/>
      <point x="636" y="239"/>
      <point x="686" y="421" type="qcurve" smooth="yes"/>
      <point x="778" y="754" type="line"/>
      <point x="882" y="739" type="line"/>
      <point x="759" y="347"/>
      <point x="748" y="153"/>
      <point x="791" y="28" type="qcurve"/>
    </contour>
  </outline>
</glyph>
<glyph name="quotesingle" format="2">
  <advance width="487"/>
  <unicode hex="0027"/>
  <outline>
    <contour>
      <point x="275.0" y="944.0" type="line"/>
      <point x="326.0" y="1413.0" type="line" smooth="yes"/>
      <point x="333.0" y="1484.0"/>
      <point x="385.0" y="1562.0"/>
      <point x="424.0" y="1562.0" type="qcurve" smooth="yes"/>
      <point x="475.0" y="1562.0"/>
      <point x="480.0" y="1474.0"/>
      <point x="464.0" y="1413.0" type="qcurve" smooth="yes"/>
      <point x="339.0" y="934.0" type="line"/>
    </contour>
  </outline>
</glyph>
<glyph name="parenleft" format="2">
  <advance width="648"/>
  <unicode hex="0028"/>
  <outline>
    <contour>
      <point x="122.0" y="543.0" type="qcurve" smooth="yes"/>
      <point x="175.0" y="840.0"/>
      <point x="511.0" y="1388.0"/>
      <point x="688.0" y="1522.0" type="qcurve"/>
      <point x="738.0" y="1462.0" type="line"/>
      <point x="581.0" y="1332.0"/>
      <point x="289.0" y="824.0"/>
      <point x="239.0" y="543.0" type="qcurve" smooth="yes"/>
      <point x="187.0" y="246.0"/>
      <point x="307.0" y="-244.0"/>
      <point x="454.0" y="-421.0" type="qcurve"/>
      <point x="391.0" y="-474.0" type="line"/>
      <point x="211.0" y="-286.0"/>
      <point x="68.0" y="237.0"/>
    </contour>
  </outline>
</glyph>
<glyph name="parenright" format="2">
  <advance width="648"/>
  <unicode hex="0029"/>
  <outline>
    <contour>
      <point x="528.0" y="501.0" type="qcurve" smooth="yes"/>
      <point x="477.0" y="222.0"/>
      <point x="131.0" y="-346.0"/>
      <point x="-48.0" y="-480.0" type="qcurve"/>
      <point x="-100.0" y="-420.0" type="line"/>
      <point x="57.0" y="-283.0"/>
      <point x="356.0" y="218.0"/>
      <point x="408.0" y="501.0" type="qcurve" smooth="yes"/>
      <point x="460.0" y="796.0"/>
      <point x="341.0" y="1294.0"/>
      <point x="188.0" y="1465.0" type="qcurve"/>
      <point x="249.0" y="1518.0" type="line"/>
      <point x="429.0" y="1330.0"/>
      <point x="584.0" y="827.0"/>
    </contour>
  </outline>
</glyph>
<glyph name="asterisk" format="2">
  <advance width="1037"/>
  <unicode hex="002A"/>
  <outline>
    <contour>
      <point x="437" y="710" type="qcurve" smooth="yes"/>
      <point x="389" y="726"/>
      <point x="427" y="857"/>
      <point x="450" y="906" type="qcurve" smooth="yes"/>
      <point x="535" y="1100" type="line"/>
      <point x="533" y="1102" type="line"/>
      <point x="340" y="1020" type="line" smooth="yes"/>
      <point x="302" y="1004"/>
      <point x="166" y="963"/>
      <point x="151" y="1020" type="qcurve" smooth="yes"/>
      <point x="138" y="1074"/>
      <point x="267" y="1107"/>
      <point x="322" y="1112" type="qcurve" smooth="yes"/>
      <point x="523" y="1131" type="line"/>
      <point x="523" y="1136" type="line"/>
      <point x="344" y="1283" type="line" smooth="yes"/>
      <point x="305" y="1315"/>
      <point x="234" y="1404"/>
      <point x="269" y="1440" type="qcurve" smooth="yes"/>
      <point x="304" y="1475"/>
      <point x="381" y="1398"/>
      <point x="413" y="1352" type="qcurve" smooth="yes"/>
      <point x="545" y="1161" type="line"/>
      <point x="551" y="1161" type="line"/>
      <point x="582" y="1397" type="line" smooth="yes"/>
      <point x="591" y="1456"/>
      <point x="632" y="1549"/>
      <point x="676" y="1542" type="qcurve" smooth="yes"/>
      <point x="720" y="1533"/>
      <point x="697" y="1429"/>
      <point x="674" y="1373" type="qcurve" smooth="yes"/>
      <point x="579" y="1152" type="line"/>
      <point x="581" y="1148" type="line"/>
      <point x="792" y="1241" type="line" smooth="yes"/>
      <point x="816" y="1254"/>
      <point x="942" y="1290"/>
      <point x="957" y="1232" type="qcurve" smooth="yes"/>
      <point x="970" y="1178"/>
      <point x="829" y="1144"/>
      <point x="812" y="1143" type="qcurve" smooth="yes"/>
      <point x="588" y="1119" type="line"/>
      <point x="588" y="1114" type="line"/>
      <point x="737" y="993" type="line" smooth="yes"/>
      <point x="787" y="956"/>
      <point x="886" y="850"/>
      <point x="845" y="811" type="qcurve" smooth="yes"/>
      <point x="805" y="771"/>
      <point x="709" y="881"/>
      <point x="676" y="929" type="qcurve" smooth="yes"/>
      <point x="564" y="1092" type="line"/>
      <point x="562" y="1092" type="line"/>
      <point x="541" y="882" type="line" smooth="yes"/>
      <point x="537" y="824"/>
      <point x="491" y="694"/>
    </contour>
  </outline>
</glyph>
<glyph name="plus" format="2">
  <advance width="830"/>
  <unicode hex="002B"/>
  <outline>
    <contour>
      <point x="56.0" y="596.0" type="line"/>
      <point x="56.0" y="669.0" type="line"/>
      <point x="756.0" y="669.0" type="line"/>
      <point x="756.0" y="596.0" type="line"/>
    </contour>
    <contour>
      <point x="366.0" y="222.0" type="line"/>
      <point x="366.0" y="1042.0" type="line"/>
      <point x="446.0" y="1042.0" type="line"/>
      <point x="446.0" y="222.0" type="line"/>
    </contour>
  </outline>
</glyph>
<glyph name="comma" format="2">
  <advance width="389"/>
  <unicode hex="002C"/>
  <outline>
    <contour>
      <point x="-33.0" y="-169.0" type="line"/>
      <point x="3.0" y="-145.0"/>
      <point x="86.0" y="-58.0"/>
      <point x="102.0" y="-6.0" type="qcurve"/>
      <point x="55.0" y="-6.0"/>
      <point x="10.0" y="39.0"/>
      <point x="10.0" y="76.0" type="qcurve" smooth="yes"/>
      <point x="10.0" y="112.0"/>
      <point x="66.0" y="167.0"/>
      <point x="107.0" y="167.0" type="qcurve" smooth="yes"/>
      <point x="145.0" y="167.0"/>
      <point x="195.0" y="121.0"/>
      <point x="195.0" y="66.0" type="qcurve" smooth="yes"/>
      <point x="195.0" y="3.0"/>
      <point x="77.0" y="-173.0"/>
      <point x="5.0" y="-219.0" type="qcurve"/>
    </contour>
  </outline>
</glyph>
<glyph name="period" format="2">
  <advance width="389"/>
  <unicode hex="002E"/>
  <outline>
    <contour>
      <point x="123.0" y="70.0" type="qcurve" smooth="yes"/>
      <point x="123.0" y="104.0"/>
      <point x="174.0" y="158.0"/>
      <point x="216.0" y="158.0" type="qcurve" smooth="yes"/>
      <point x="257.0" y="158.0"/>
      <point x="309.0" y="104.0"/>
      <point x="309.0" y="70.0" type="qcurve" smooth="yes"/>
      <point x="309.0" y="33.0"/>
      <point x="257.0" y="-21.0"/>
      <point x="216.0" y="-21.0" type="qcurve" smooth="yes"/>
      <point x="174.0" y="-21.0"/>
      <point x="123.0" y="33.0"/>
    </contour>
  </outline>
</glyph>
<glyph name="slash" format="2">
  <advance width="467"/>
  <unicode hex="002F"/>
  <outline>
    <contour>
      <point x="-68" y="-123" type="line"/>
      <point x="548" y="1550" type="line"/>
      <point x="637" y="1530" type="line"/>
      <point x="21" y="-143" type="line"/>
    </contour>
  </outline>
</glyph>
<glyph name="zero" format="2">
  <advance width="869"/>
  <unicode hex="0030"/>
  <outline>
    <contour>
      <point x="119" y="857" type="qcurve" smooth="yes"/>
      <point x="199" y="1203"/>
      <point x="495" y="1554"/>
      <point x="652" y="1512" type="qcurve" smooth="yes"/>
      <point x="810" y="1470"/>
      <point x="865" y="1011"/>
      <point x="795" y="678" type="qcurve" smooth="yes"/>
      <point x="728" y="360"/>
      <point x="453" y="-49"/>
      <point x="280" y="-13" type="qcurve" smooth="yes"/>
      <point x="115" y="21"/>
      <point x="36" y="498"/>
    </contour>
    <contour>
      <point x="225" y="829" type="qcurve" smooth="yes"/>
      <point x="152" y="504"/>
      <point x="188" y="103"/>
      <point x="299" y="77" type="qcurve" smooth="yes"/>
      <point x="423" y="49"/>
      <point x="622" y="407"/>
      <point x="690" y="712" type="qcurve" smooth="yes"/>
      <point x="758" y="1028"/>
      <point x="736" y="1393"/>
      <point x="616" y="1420" type="qcurve" smooth="yes"/>
      <point x="496" y="1447"/>
      <point x="295" y="1137"/>
    </contour>
  </outline>
</glyph>
<glyph name="one" format="2">
  <advance width="606"/>
  <unicode hex="0031"/>
  <outline>
    <contour>
      <point x="126" y="-13" type="line"/>
      <point x="150" y="49"/>
      <point x="186" y="170"/>
      <point x="210" y="277" type="qcurve" smooth="yes"/>
      <point x="383" y="1034" type="line"/>
      <point x="456" y="1367" type="line"/>
      <point x="133" y="1189" type="line"/>
      <point x="105" y="1283" type="line"/>
      <point x="542" y="1515" type="line"/>
      <point x="610" y="1499" type="line"/>
      <point x="593" y="1449"/>
      <point x="551" y="1327"/>
      <point x="539" y="1275" type="qcurve" smooth="yes"/>
      <point x="410" y="720" type="line"/>
      <point x="283" y="89" type="line"/>
      <point x="181" y="-25" type="line"/>
    </contour>
  </outline>
</glyph>
<glyph name="two" format="2">
  <advance width="708"/>
  <unicode hex="0032"/>
  <outline>
    <contour>
      <point x="-78" y="-3" type="qcurve"/>
      <point x="-98" y="74" type="line"/>
      <point x="-30" y="133" type="line" smooth="yes"/>
      <point x="266" y="391"/>
      <point x="572" y="930"/>
      <point x="604" y="1134" type="qcurve" smooth="yes"/>
      <point x="626" y="1275"/>
      <point x="559" y="1413"/>
      <point x="462" y="1412" type="qcurve" smooth="yes"/>
      <point x="371" y="1411"/>
      <point x="235" y="1290"/>
      <point x="178" y="1182" type="qcurve"/>
      <point x="116" y="1224" type="line"/>
      <point x="205" y="1389"/>
      <point x="390" y="1512"/>
      <point x="504" y="1513" type="qcurve" smooth="yes"/>
      <point x="614" y="1513"/>
      <point x="749" y="1329"/>
      <point x="722" y="1139" type="qcurve" smooth="yes"/>
      <point x="687" y="899"/>
      <point x="341" y="354"/>
      <point x="69" y="109" type="qcurve"/>
      <point x="71" y="107" type="line"/>
      <point x="98" y="119"/>
      <point x="179" y="141"/>
      <point x="230" y="141" type="qcurve" smooth="yes"/>
      <point x="292" y="141"/>
      <point x="394" y="134"/>
      <point x="449" y="126" type="qcurve"/>
      <point x="548" y="263" type="line"/>
      <point x="602" y="261" type="line"/>
      <point x="508" y="-7" type="line"/>
      <point x="421" y="8"/>
      <point x="237" y="25"/>
      <point x="133" y="26" type="qcurve" smooth="yes"/>
      <point x="71" y="28"/>
      <point x="-27" y="11"/>
    </contour>
  </outline>
</glyph>
<glyph name="three" format="2">
  <advance width="732"/>
  <unicode hex="0033"/>
  <outline>
    <contour>
      <point x="-69" y="222" type="qcurve" smooth="yes"/>
      <point x="-69" y="307"/>
      <point x="27" y="403"/>
      <point x="52" y="416" type="qcurve"/>
      <point x="94" y="416" type="line"/>
      <point x="71" y="381"/>
      <point x="43" y="293"/>
      <point x="43" y="230" type="qcurve" smooth="yes"/>
      <point x="43" y="158"/>
      <point x="141" y="66"/>
      <point x="240" y="66" type="qcurve" smooth="yes"/>
      <point x="365" y="66"/>
      <point x="523" y="240"/>
      <point x="553" y="407" type="qcurve" smooth="yes"/>
      <point x="585" y="587"/>
      <point x="445" y="789"/>
      <point x="303" y="789" type="qcurve" smooth="yes"/>
      <point x="208" y="789" type="line"/>
      <point x="226" y="870" type="line"/>
      <point x="307" y="874" type="line" smooth="yes"/>
      <point x="452" y="881"/>
      <point x="626" y="1049"/>
      <point x="636" y="1176" type="qcurve" smooth="yes"/>
      <point x="645" y="1292"/>
      <point x="554" y="1410"/>
      <point x="465" y="1410" type="qcurve" smooth="yes"/>
      <point x="375" y="1410"/>
      <point x="241" y="1302"/>
      <point x="191" y="1221" type="qcurve"/>
      <point x="124" y="1283" type="line"/>
      <point x="180" y="1376"/>
      <point x="367" y="1507"/>
      <point x="487" y="1507.0" type="qcurve" smooth="yes"/>
      <point x="599" y="1507"/>
      <point x="757" y="1362"/>
      <point x="749" y="1222" type="qcurve" smooth="yes"/>
      <point x="740" y="1071"/>
      <point x="577" y="865"/>
      <point x="452" y="842" type="qcurve"/>
      <point x="450" y="835" type="line"/>
      <point x="567" y="801"/>
      <point x="686" y="558"/>
      <point x="657" y="383" type="qcurve" smooth="yes"/>
      <point x="628" y="207"/>
      <point x="408" y="-16"/>
      <point x="248" y="-16" type="qcurve" smooth="yes"/>
      <point x="98" y="-16"/>
      <point x="-69" y="113"/>
    </contour>
  </outline>
</glyph>
<glyph name="four" format="2">
  <advance width="783"/>
  <unicode hex="0034"/>
  <outline>
    <contour>
      <point x="15" y="465" type="line"/>
      <point x="-5" y="540" type="line"/>
      <point x="714" y="1520" type="line"/>
      <point x="757" y="1521" type="line"/>
      <point x="787" y="1481" type="line"/>
      <point x="606" y="527" type="line"/>
      <point x="600" y="496" type="line"/>
      <point x="542" y="186" type="line"/>
      <point x="537" y="39" type="line"/>
      <point x="440" y="-34" type="line"/>
      <point x="393" y="-11" type="line"/>
      <point x="502" y="509" type="line"/>
      <point x="509" y="541" type="line"/>
      <point x="652" y="1306" type="line"/>
      <point x="136" y="585" type="line"/>
      <point x="140" y="565" type="line"/>
      <point x="738" y="565" type="line"/>
      <point x="728" y="475" type="line"/>
    </contour>
  </outline>
</glyph>
<glyph name="five" format="2">
  <advance width="725"/>
  <unicode hex="0035"/>
  <outline>
    <contour>
      <point x="-51" y="221" type="qcurve" smooth="yes"/>
      <point x="-51" y="308"/>
      <point x="37" y="402"/>
      <point x="68" y="418" type="qcurve"/>
      <point x="106" y="415" type="line"/>
      <point x="99" y="399" type="line" smooth="yes"/>
      <point x="29" y="239"/>
      <point x="110" y="66"/>
      <point x="225" y="66.0" type="qcurve" smooth="yes"/>
      <point x="353" y="66.0"/>
      <point x="521" y="324"/>
      <point x="535" y="531" type="qcurve" smooth="yes"/>
      <point x="548" y="735"/>
      <point x="364" y="879"/>
      <point x="200" y="813" type="qcurve" smooth="yes"/>
      <point x="140" y="789" type="line"/>
      <point x="105" y="857" type="line"/>
      <point x="237" y="1433" type="line"/>
      <point x="307" y="1500" type="line"/>
      <point x="727" y="1500" type="line"/>
      <point x="701" y="1392" type="line"/>
      <point x="330" y="1392" type="line"/>
      <point x="321" y="1381" type="line"/>
      <point x="277" y="1191"/>
      <point x="208" y="926"/>
      <point x="194" y="892" type="qcurve"/>
      <point x="311" y="937" type="line"/>
      <point x="470" y="961"/>
      <point x="655" y="766"/>
      <point x="641" y="530" type="qcurve" smooth="yes"/>
      <point x="627" y="296"/>
      <point x="392" y="-16"/>
      <point x="224" y="-16" type="qcurve" smooth="yes"/>
      <point x="96" y="-16"/>
      <point x="-51" y="113"/>
    </contour>
  </outline>
</glyph>
<glyph name="six" format="2">
  <advance width="800"/>
  <unicode hex="0036"/>
  <outline>
    <contour>
      <point x="50" y="504" type="qcurve" smooth="yes"/>
      <point x="94" y="870"/>
      <point x="572" y="1486"/>
      <point x="933" y="1559" type="qcurve"/>
      <point x="935" y="1471" type="line"/>
      <point x="592" y="1388"/>
      <point x="186" y="798"/>
      <point x="151" y="479" type="qcurve" smooth="yes"/>
      <point x="128" y="268"/>
      <point x="213" y="81"/>
      <point x="299" y="79" type="qcurve" smooth="yes"/>
      <point x="407" y="77"/>
      <point x="567" y="317"/>
      <point x="614" y="487" type="qcurve" smooth="yes"/>
      <point x="660" y="655"/>
      <point x="569" y="795"/>
      <point x="484" y="795" type="qcurve" smooth="yes"/>
      <point x="428" y="795"/>
      <point x="346" y="745"/>
      <point x="319" y="722" type="qcurve"/>
      <point x="301" y="792" type="line"/>
      <point x="335" y="830"/>
      <point x="459" y="885"/>
      <point x="528" y="886" type="qcurve" smooth="yes"/>
      <point x="645" y="888"/>
      <point x="770" y="683"/>
      <point x="719" y="461" type="qcurve" smooth="yes"/>
      <point x="678" y="282"/>
      <point x="456" y="-15"/>
      <point x="299" y="-15" type="qcurve" smooth="yes"/>
      <point x="160" y="-15"/>
      <point x="17" y="231"/>
    </contour>
  </outline>
</glyph>
<glyph name="seven" format="2">
  <advance width="739"/>
  <unicode hex="0037"/>
  <outline>
    <contour>
      <point x="129" y="1229" type="line"/>
      <point x="188" y="1500" type="line"/>
      <point x="832" y="1500" type="line"/>
      <point x="858" y="1397" type="line"/>
      <point x="668" y="1137"/>
      <point x="274" y="360"/>
      <point x="213" y="52" type="qcurve"/>
      <point x="108" y="-29" type="line"/>
      <point x="73" y="1" type="line"/>
      <point x="200" y="397"/>
      <point x="570" y="1150"/>
      <point x="747" y="1378" type="qcurve"/>
      <point x="735" y="1392" type="line"/>
      <point x="256" y="1394" type="line"/>
      <point x="206" y="1229" type="line"/>
    </contour>
  </outline>
</glyph>
<glyph name="eight" format="2">
  <advance width="768"/>
  <unicode hex="0038"/>
  <outline>
    <contour>
      <point x="13" y="369" type="qcurve" smooth="yes"/>
      <point x="29" y="522"/>
      <point x="240" y="763"/>
      <point x="415" y="858" type="qcurve"/>
      <point x="456" y="804" type="line"/>
      <point x="302" y="714"/>
      <point x="122" y="502"/>
      <point x="108" y="346" type="qcurve" smooth="yes"/>
      <point x="98" y="229"/>
      <point x="198" y="73.0"/>
      <point x="319" y="73.0" type="qcurve" smooth="yes"/>
      <point x="440" y="73"/>
      <point x="585" y="239"/>
      <point x="592" y="378" type="qcurve" smooth="yes"/>
      <point x="599" y="502"/>
      <point x="504" y="701"/>
      <point x="426" y="789" type="qcurve" smooth="yes"/>
      <point x="365" y="858"/>
      <point x="241" y="1058"/>
      <point x="246" y="1193" type="qcurve" smooth="yes"/>
      <point x="252" y="1329"/>
      <point x="412" y="1518"/>
      <point x="540" y="1518.0" type="qcurve" smooth="yes"/>
      <point x="675" y="1518"/>
      <point x="805" y="1331"/>
      <point x="791" y="1193" type="qcurve" smooth="yes"/>
      <point x="775" y="1042"/>
      <point x="610" y="870"/>
      <point x="477" y="812" type="qcurve"/>
      <point x="437" y="875" type="line"/>
      <point x="563" y="936"/>
      <point x="695" y="1097"/>
      <point x="708" y="1186" type="qcurve" smooth="yes"/>
      <point x="722" y="1279"/>
      <point x="646" y="1423"/>
      <point x="555" y="1423" type="qcurve" smooth="yes"/>
      <point x="455" y="1423"/>
      <point x="338" y="1304"/>
      <point x="334" y="1199" type="qcurve" smooth="yes"/>
      <point x="329" y="1092"/>
      <point x="424" y="929"/>
      <point x="510" y="828" type="qcurve" smooth="yes"/>
      <point x="608" y="711"/>
      <point x="687" y="533"/>
      <point x="683" y="381" type="qcurve" smooth="yes"/>
      <point x="679" y="225"/>
      <point x="477" y="-17"/>
      <point x="313" y="-17" type="qcurve" smooth="yes"/>
      <point x="163" y="-17"/>
      <point x="-4" y="206"/>
    </contour>
  </outline>
</glyph>
<glyph name="nine" format="2">
  <advance width="800"/>
  <unicode hex="0039"/>
  <outline>
    <contour>
      <point x="-89" y="-55" type="qcurve"/>
      <point x="-91" y="33" type="line"/>
      <point x="252" y="116"/>
      <point x="658" y="706"/>
      <point x="693" y="1025" type="qcurve" smooth="yes"/>
      <point x="716" y="1236"/>
      <point x="631" y="1423"/>
      <point x="545" y="1425" type="qcurve" smooth="yes"/>
      <point x="437" y="1427"/>
      <point x="272" y="1187"/>
      <point x="230" y="1017" type="qcurve" smooth="yes"/>
      <point x="194" y="873"/>
      <point x="267" y="733"/>
      <point x="350" y="725" type="qcurve" smooth="yes"/>
      <point x="410" y="719"/>
      <point x="504" y="773"/>
      <point x="531" y="796" type="qcurve"/>
      <point x="549" y="726" type="line"/>
      <point x="515" y="688"/>
      <point x="391" y="628"/>
      <point x="306" y="632" type="qcurve" smooth="yes"/>
      <point x="194" y="637"/>
      <point x="80" y="835"/>
      <point x="125" y="1043" type="qcurve" smooth="yes"/>
      <point x="164" y="1222"/>
      <point x="398" y="1519"/>
      <point x="545" y="1519" type="qcurve" smooth="yes"/>
      <point x="684" y="1519"/>
      <point x="827" y="1273"/>
      <point x="794" y="1000" type="qcurve" smooth="yes"/>
      <point x="750" y="634"/>
      <point x="272" y="18"/>
    </contour>
  </outline>
</glyph>
<glyph name="colon" format="2">
  <advance width="285"/>
  <unicode hex="003A"/>
  <outline>
    <contour>
      <point x="-58.0" y="68.0" type="qcurve" smooth="yes"/>
      <point x="-58.0" y="105.0"/>
      <point x="-6.0" y="159.0"/>
      <point x="36.0" y="159.0" type="qcurve" smooth="yes"/>
      <point x="77.0" y="159.0"/>
      <point x="129.0" y="105.0"/>
      <point x="129.0" y="68.0" type="qcurve" smooth="yes"/>
      <point x="129.0" y="32.0"/>
      <point x="77.0" y="-22.0"/>
      <point x="36.0" y="-22.0" type="qcurve" smooth="yes"/>
      <point x="-6.0" y="-22.0"/>
      <point x="-58.0" y="32.0"/>
    </contour>
    <contour>
      <point x="70.0" y="828.0" type="qcurve" smooth="yes"/>
      <point x="70.0" y="865.0"/>
      <point x="122.0" y="919.0"/>
      <point x="164.0" y="919.0" type="qcurve" smooth="yes"/>
      <point x="205.0" y="919.0"/>
      <point x="257.0" y="865.0"/>
      <point x="257.0" y="828.0" type="qcurve" smooth="yes"/>
      <point x="257.0" y="792.0"/>
      <point x="205.0" y="738.0"/>
      <point x="164.0" y="738.0" type="qcurve" smooth="yes"/>
      <point x="122.0" y="738.0"/>
      <point x="70.0" y="792.0"/>
    </contour>
  </outline>
</glyph>
<glyph name="semicolon" format="2">
  <advance width="338"/>
  <unicode hex="003B"/>
  <outline>
    <contour>
      <point x="100.0" y="828.0" type="qcurve" smooth="yes"/>
      <point x="100.0" y="865.0"/>
      <point x="152.0" y="919.0"/>
      <point x="194.0" y="919.0" type="qcurve" smooth="yes"/>
      <point x="235.0" y="919.0"/>
      <point x="287.0" y="865.0"/>
      <point x="287.0" y="828.0" type="qcurve" smooth="yes"/>
      <point x="287.0" y="792.0"/>
      <point x="235.0" y="738.0"/>
      <point x="194.0" y="738.0" type="qcurve" smooth="yes"/>
      <point x="152.0" y="738.0"/>
      <point x="100.0" y="792.0"/>
    </contour>
    <contour>
      <point x="-59.0" y="-169.0" type="line"/>
      <point x="-23.0" y="-145.0"/>
      <point x="60.0" y="-58.0"/>
      <point x="76.0" y="-6.0" type="qcurve"/>
      <point x="29.0" y="-6.0"/>
      <point x="-16.0" y="39.0"/>
      <point x="-16.0" y="76.0" type="qcurve" smooth="yes"/>
      <point x="-16.0" y="112.0"/>
      <point x="40.0" y="167.0"/>
      <point x="81.0" y="167.0" type="qcurve" smooth="yes"/>
      <point x="119.0" y="167.0"/>
      <point x="169.0" y="121.0"/>
      <point x="169.0" y="66.0" type="qcurve" smooth="yes"/>
      <point x="169.0" y="3.0"/>
      <point x="51.0" y="-173.0"/>
      <point x="-21.0" y="-219.0" type="qcurve"/>
    </contour>
  </outline>
</glyph>
<glyph name="less" format="2">
  <advance width="500"/>
  <unicode hex="003C"/>
  <outline>
    <contour>
      <point x="3.0" y="593.0" type="qcurve"/>
      <point x="29.0" y="628.0"/>
      <point x="383.0" y="949.0"/>
      <point x="452.0" y="1010.0" type="qcurve" smooth="yes"/>
      <point x="506.0" y="1062.0"/>
      <point x="544.0" y="1010.0"/>
      <point x="492.0" y="955.0" type="qcurve" smooth="yes"/>
      <point x="415.0" y="880.0"/>
      <point x="172.0" y="634.0"/>
      <point x="149.0" y="595.0" type="qcurve"/>
      <point x="170.0" y="551.0"/>
      <point x="358.0" y="271.0"/>
      <point x="397.0" y="213.0" type="qcurve"/>
      <point x="431.0" y="162.0"/>
      <point x="391.0" y="105.0"/>
      <point x="355.0" y="161.0" type="qcurve" smooth="yes"/>
      <point x="317.0" y="217.0"/>
      <point x="46.0" y="537.0"/>
    </contour>
  </outline>
</glyph>
<glyph name="equal" format="2">
  <advance width="830"/>
  <unicode hex="003D"/>
  <outline>
    <contour>
      <point x="85.0" y="486.0" type="line"/>
      <point x="85.0" y="582.0" type="line"/>
      <point x="409.0" y="576.0" type="line"/>
      <point x="737.0" y="582.0" type="line"/>
      <point x="737.0" y="486.0" type="line"/>
      <point x="409.0" y="486.0" type="line"/>
    </contour>
    <contour>
      <point x="85.0" y="720.0" type="line"/>
      <point x="85.0" y="816.0" type="line"/>
      <point x="409.0" y="816.0" type="line"/>
      <point x="737.0" y="816.0" type="line"/>
      <point x="737.0" y="720.0" type="line"/>
      <point x="409.0" y="726.0" type="line"/>
    </contour>
  </outline>
</glyph>
<glyph name="greater" format="2">
  <advance width="500"/>
  <unicode hex="003E"/>
  <outline>
    <contour>
      <point x="534.0" y="625.0" type="qcurve"/>
      <point x="508.0" y="590.0"/>
      <point x="159.0" y="272.0"/>
      <point x="90.0" y="211.0" type="qcurve" smooth="yes"/>
      <point x="36.0" y="159.0"/>
      <point x="-2.0" y="211.0"/>
      <point x="50.0" y="266.0" type="qcurve" smooth="yes"/>
      <point x="127.0" y="341.0"/>
      <point x="365.0" y="584.0"/>
      <point x="388.0" y="623.0" type="qcurve"/>
      <point x="367.0" y="667.0"/>
      <point x="179.0" y="947.0"/>
      <point x="140.0" y="1005.0" type="qcurve"/>
      <point x="106.0" y="1056.0"/>
      <point x="146.0" y="1113.0"/>
      <point x="182.0" y="1057.0" type="qcurve" smooth="yes"/>
      <point x="220.0" y="1001.0"/>
      <point x="491.0" y="681.0"/>
    </contour>
  </outline>
</glyph>
<glyph name="question" format="2">
  <advance width="750"/>
  <unicode hex="003F"/>
  <outline>
    <contour>
      <point x="156" y="1284" type="qcurve" smooth="yes"/>
      <point x="168" y="1388.0"/>
      <point x="351" y="1524.0"/>
      <point x="488" y="1524.0" type="qcurve" smooth="yes"/>
      <point x="648" y="1524.0"/>
      <point x="812" y="1339.0"/>
      <point x="812.0" y="1202" type="qcurve" smooth="yes"/>
      <point x="812" y="1070.0"/>
      <point x="679" y="856.0"/>
      <point x="539" y="769" type="qcurve" smooth="yes"/>
      <point x="410" y="688.0"/>
      <point x="316" y="597"/>
      <point x="303" y="522.0" type="qcurve" smooth="yes"/>
      <point x="295" y="477.0" type="line"/>
      <point x="216" y="477.0" type="line"/>
      <point x="219" y="519.0" type="line" smooth="yes"/>
      <point x="226" y="612"/>
      <point x="362" y="754.0"/>
      <point x="490" y="853" type="qcurve" smooth="yes"/>
      <point x="622" y="956.0"/>
      <point x="700" y="1085.0"/>
      <point x="700" y="1193.0" type="qcurve" smooth="yes"/>
      <point x="700" y="1287.0"/>
      <point x="594" y="1425"/>
      <point x="471" y="1425.0" type="qcurve" smooth="yes"/>
      <point x="383.0" y="1425.0"/>
      <point x="270" y="1371.0"/>
      <point x="262" y="1309.0" type="qcurve" smooth="yes"/>
      <point x="260" y="1285.0"/>
      <point x="298" y="1245.0"/>
      <point x="302" y="1209.0" type="qcurve" smooth="yes"/>
      <point x="303" y="1176.0"/>
      <point x="278" y="1124"/>
      <point x="235" y="1124.0" type="qcurve" smooth="yes"/>
      <point x="195" y="1124.0"/>
      <point x="147" y="1203"/>
    </contour>
    <contour>
      <point x="129.0" y="68.0" type="qcurve" smooth="yes"/>
      <point x="129.0" y="102.0"/>
      <point x="180.0" y="158.0"/>
      <point x="222.0" y="158.0" type="qcurve" smooth="yes"/>
      <point x="265.0" y="158.0"/>
      <point x="317.0" y="102.0"/>
      <point x="317.0" y="68.0" type="qcurve" smooth="yes"/>
      <point x="317.0" y="31.0"/>
      <point x="265.0" y="-23.0"/>
      <point x="222.0" y="-23.0" type="qcurve" smooth="yes"/>
      <point x="180.0" y="-23.0"/>
      <point x="129.0" y="31.0"/>
    </contour>
  </outline>
</glyph>
<glyph name="at" format="2">
  <advance width="1152"/>
  <unicode hex="0040"/>
  <outline>
    <contour>
      <point x="284" y="537" type="qcurve" smooth="yes"/>
      <point x="306" y="789"/>
      <point x="563" y="1185"/>
      <point x="727" y="1185" type="qcurve" smooth="yes"/>
      <point x="745" y="1186"/>
      <point x="797" y="1174"/>
      <point x="807" y="1164" type="qcurve"/>
      <point x="851" y="1217" type="line"/>
      <point x="887" y="1217" type="line"/>
      <point x="894" y="1109" type="line"/>
      <point x="760" y="596" type="line"/>
      <point x="738" y="468" type="line" smooth="yes"/>
      <point x="733" y="436"/>
      <point x="761" y="406"/>
      <point x="798" y="406" type="qcurve" smooth="yes"/>
      <point x="870" y="406"/>
      <point x="1016" y="608"/>
      <point x="1048" y="806" type="qcurve" smooth="yes"/>
      <point x="1098" y="1117"/>
      <point x="900" y="1442"/>
      <point x="712" y="1442" type="qcurve" smooth="yes"/>
      <point x="528" y="1441"/>
      <point x="198" y="1064"/>
      <point x="143" y="734" type="qcurve" smooth="yes"/>
      <point x="88" y="401"/>
      <point x="232" y="9"/>
      <point x="428" y="10" type="qcurve" smooth="yes"/>
      <point x="519" y="10"/>
      <point x="669" y="61"/>
      <point x="714" y="103" type="qcurve"/>
      <point x="735" y="24" type="line"/>
      <point x="677" y="-24"/>
      <point x="519" y="-78"/>
      <point x="418" y="-79" type="qcurve" smooth="yes"/>
      <point x="198" y="-79"/>
      <point x="-13" y="381"/>
      <point x="50" y="745" type="qcurve" smooth="yes"/>
      <point x="116" y="1126"/>
      <point x="522" y="1532"/>
      <point x="738" y="1532.0" type="qcurve" smooth="yes"/>
      <point x="951" y="1532"/>
      <point x="1177" y="1127"/>
      <point x="1131" y="799" type="qcurve" smooth="yes"/>
      <point x="1099" y="570"/>
      <point x="881" y="328"/>
      <point x="768" y="328" type="qcurve" smooth="yes"/>
      <point x="708" y="328"/>
      <point x="654" y="392"/>
      <point x="656" y="486" type="qcurve"/>
      <point x="640" y="433"/>
      <point x="507" y="320"/>
      <point x="407" y="320" type="qcurve" smooth="yes"/>
      <point x="340" y="320"/>
      <point x="276" y="445"/>
    </contour>
    <contour>
      <point x="381" y="556" type="qcurve" smooth="yes"/>
      <point x="376" y="492"/>
      <point x="409" y="416"/>
      <point x="469" y="416" type="qcurve" smooth="yes"/>
      <point x="536" y="416"/>
      <point x="684" y="611"/>
      <point x="714" y="740" type="qcurve" smooth="yes"/>
      <point x="780" y="1020" type="line"/>
      <point x="781" y="1059"/>
      <point x="753" y="1100"/>
      <point x="708" y="1100" type="qcurve" smooth="yes"/>
      <point x="604" y="1100"/>
      <point x="399" y="760"/>
    </contour>
  </outline>
</glyph>
<glyph name="A" format="2">
  <advance width="1095"/>
  <unicode hex="0041"/>
  <outline>
    <contour>
      <point x="-161" y="0" type="line"/>
      <point x="-152" y="81" type="line"/>
      <point x="-15" y="105" type="line"/>
      <point x="248" y="567" type="line"/>
      <point x="788" y="1517" type="line"/>
      <point x="935" y="1499" type="line"/>
      <point x="892" y="603" type="line"/>
      <point x="869" y="121" type="line"/>
      <point x="999" y="91" type="line"/>
      <point x="998" y="0" type="line"/>
      <point x="621" y="0" type="line"/>
      <point x="623" y="91" type="line"/>
      <point x="769" y="125" type="line"/>
      <point x="791" y="602" type="line"/>
      <point x="826" y="1388" type="line"/>
      <point x="815" y="1392" type="line"/>
      <point x="332" y="526" type="line"/>
      <point x="100" y="111" type="line"/>
      <point x="242" y="81" type="line"/>
      <point x="233" y="0" type="line"/>
    </contour>
    <contour>
      <point x="244" y="462" type="line"/>
      <point x="306" y="568" type="line"/>
      <point x="530" y="562" type="line"/>
      <point x="497" y="476" type="line"/>
    </contour>
    <contour>
      <point x="530" y="562" type="line"/>
      <point x="846" y="570" type="line"/>
      <point x="841" y="474" type="line"/>
      <point x="497" y="476" type="line"/>
    </contour>
  </outline>
</glyph>
<glyph name="B" format="2">
  <advance width="1014"/>
  <unicode hex="0042"/>
  <outline>
    <contour>
      <point x="-22" y="0" type="line"/>
      <point x="-18" y="90" type="line"/>
      <point x="118" y="120" type="line"/>
      <point x="243" y="779" type="line"/>
      <point x="361" y="1387" type="line"/>
      <point x="201" y="1411" type="line"/>
      <point x="213" y="1500" type="line"/>
      <point x="620" y="1500" type="line" smooth="yes"/>
      <point x="794" y="1500"/>
      <point x="951" y="1308"/>
      <point x="942" y="1163" type="qcurve" smooth="yes"/>
      <point x="934" y="1030"/>
      <point x="778" y="831"/>
      <point x="666" y="796" type="qcurve"/>
      <point x="665" y="789" type="line"/>
      <point x="783" y="758"/>
      <point x="915" y="553"/>
      <point x="886" y="399" type="qcurve" smooth="yes"/>
      <point x="849" y="205"/>
      <point x="595" y="0"/>
      <point x="392" y="0" type="qcurve" smooth="yes"/>
    </contour>
    <contour>
      <point x="232" y="124" type="line"/>
      <point x="240" y="94" type="line"/>
      <point x="376" y="94" type="line" smooth="yes"/>
      <point x="564" y="94"/>
      <point x="749" y="270"/>
      <point x="773" y="410" type="qcurve" smooth="yes"/>
      <point x="797" y="548"/>
      <point x="666" y="743"/>
      <point x="521" y="740" type="qcurve" smooth="yes"/>
      <point x="355" y="738" type="line"/>
      <point x="345" y="724" type="line"/>
    </contour>
    <contour>
      <point x="367" y="841" type="line"/>
      <point x="373" y="827" type="line"/>
      <point x="519" y="827" type="line" smooth="yes"/>
      <point x="648" y="827"/>
      <point x="813" y="1010"/>
      <point x="822" y="1154" type="qcurve" smooth="yes"/>
      <point x="829" y="1270"/>
      <point x="712" y="1405"/>
      <point x="599" y="1404" type="qcurve" smooth="yes"/>
      <point x="494" y="1404" type="line"/>
      <point x="465" y="1384" type="line"/>
    </contour>
  </outline>
</glyph>
<glyph name="C" format="2">
  <advance width="882"/>
  <unicode hex="0043"/>
  <outline>
    <contour>
      <point x="96" y="880" type="qcurve" smooth="yes"/>
      <point x="181" y="1224"/>
      <point x="560" y="1540"/>
      <point x="746" y="1523" type="qcurve" smooth="yes"/>
      <point x="812" y="1517"/>
      <point x="922" y="1475"/>
      <point x="950" y="1456" type="qcurve"/>
      <point x="968" y="1444" type="line"/>
      <point x="984" y="1433" type="line"/>
      <point x="913" y="1053" type="line"/>
      <point x="817" y="1053" type="line"/>
      <point x="850" y="1373" type="line"/>
      <point x="834" y="1386"/>
      <point x="735" y="1418"/>
      <point x="694" y="1418" type="qcurve" smooth="yes"/>
      <point x="545" y="1418"/>
      <point x="280" y="1143"/>
      <point x="209" y="851" type="qcurve" smooth="yes"/>
      <point x="132" y="535"/>
      <point x="239" y="130"/>
      <point x="402" y="88" type="qcurve" smooth="yes"/>
      <point x="495" y="64"/>
      <point x="700" y="170"/>
      <point x="777" y="279" type="qcurve"/>
      <point x="808" y="254" type="line"/>
      <point x="812" y="191" type="line"/>
      <point x="752" y="79"/>
      <point x="495" y="-38"/>
      <point x="372" y="-8" type="qcurve" smooth="yes"/>
      <point x="133" y="50"/>
      <point x="10" y="531"/>
    </contour>
  </outline>
</glyph>
<glyph name="D" format="2">
  <advance width="1193"/>
  <unicode hex="0044"/>
  <outline>
    <contour>
      <point x="-28" y="0" type="line"/>
      <point x="-19" y="92" type="line"/>
      <point x="118" y="116" type="line"/>
      <point x="237" y="756" type="line"/>
      <point x="364" y="1390" type="line"/>
      <point x="214" y="1416" type="line"/>
      <point x="225" y="1500" type="line"/>
      <point x="710" y="1500" type="line" smooth="yes"/>
      <point x="937" y="1500"/>
      <point x="1157" y="1098"/>
      <point x="1114" y="751" type="qcurve" smooth="yes"/>
      <point x="1072" y="409"/>
      <point x="693.0" y="0.0"/>
      <point x="446" y="0" type="qcurve" smooth="yes"/>
    </contour>
    <contour>
      <point x="227" y="118" type="line"/>
      <point x="246" y="112"/>
      <point x="399" y="103"/>
      <point x="443" y="103" type="qcurve" smooth="yes"/>
      <point x="633" y="102"/>
      <point x="964" y="450"/>
      <point x="1002" y="742" type="qcurve" smooth="yes"/>
      <point x="1042" y="1051"/>
      <point x="861" y="1397"/>
      <point x="681" y="1398" type="qcurve" smooth="yes"/>
      <point x="629" y="1398"/>
      <point x="488" y="1389"/>
      <point x="468" y="1386" type="qcurve"/>
      <point x="350" y="754" type="line"/>
    </contour>
  </outline>
</glyph>
<glyph name="E" format="2">
  <advance width="953"/>
  <unicode hex="0045"/>
  <outline>
    <contour>
      <point x="-27" y="0" type="line"/>
      <point x="-22" y="92" type="line"/>
      <point x="118" y="115" type="line"/>
      <point x="249" y="819" type="line"/>
      <point x="361" y="1386" type="line"/>
      <point x="212" y="1410" type="line"/>
      <point x="221" y="1500" type="line"/>
      <point x="945" y="1500" type="line"/>
      <point x="914" y="1167" type="line"/>
      <point x="835" y="1167" type="line"/>
      <point x="820" y="1402" type="line"/>
      <point x="507" y="1402" type="line"/>
      <point x="472" y="1376" type="line"/>
      <point x="359" y="794" type="line"/>
      <point x="228" y="121" type="line"/>
      <point x="255" y="96" type="line"/>
      <point x="648" y="96" type="line"/>
      <point x="776" y="369" type="line"/>
      <point x="856" y="369" type="line"/>
      <point x="752" y="0" type="line"/>
    </contour>
    <contour>
      <point x="318" y="736" type="line"/>
      <point x="337" y="821" type="line"/>
      <point x="638" y="829" type="line"/>
      <point x="707" y="980" type="line"/>
      <point x="780" y="980" type="line"/>
      <point x="695" y="530" type="line"/>
      <point x="611" y="530" type="line"/>
      <point x="616" y="730" type="line"/>
    </contour>
  </outline>
</glyph>
<glyph name="F" format="2">
  <advance width="890"/>
  <unicode hex="0046"/>
  <outline>
    <contour>
      <point x="-25" y="0" type="line"/>
      <point x="-23" y="91" type="line"/>
      <point x="117" y="114" type="line"/>
      <point x="251" y="819" type="line"/>
      <point x="362" y="1387" type="line"/>
      <point x="211" y="1411" type="line"/>
      <point x="223" y="1500" type="line"/>
      <point x="969" y="1500" type="line"/>
      <point x="932" y="1177" type="line"/>
      <point x="849" y="1177" type="line"/>
      <point x="838" y="1405" type="line"/>
      <point x="504" y="1403" type="line"/>
      <point x="470" y="1383" type="line"/>
      <point x="363" y="835" type="line"/>
      <point x="228" y="110" type="line"/>
      <point x="398" y="91" type="line"/>
      <point x="393" y="0" type="line"/>
    </contour>
    <contour>
      <point x="291" y="728" type="line"/>
      <point x="309" y="802" type="line"/>
      <point x="636" y="806" type="line"/>
      <point x="712" y="967" type="line"/>
      <point x="786" y="967" type="line"/>
      <point x="713" y="532" type="line"/>
      <point x="640" y="532" type="line"/>
      <point x="637" y="706" type="line"/>
    </contour>
  </outline>
</glyph>
<glyph name="G" format="2">
  <advance width="980"/>
  <unicode hex="0047"/>
  <outline>
    <contour>
      <point x="95" y="856" type="qcurve" smooth="yes"/>
      <point x="189" y="1220"/>
      <point x="543" y="1530"/>
      <point x="737" y="1516" type="qcurve" smooth="yes"/>
      <point x="803" y="1511"/>
      <point x="909" y="1471"/>
      <point x="945" y="1443" type="qcurve" smooth="yes"/>
      <point x="960" y="1432" type="line"/>
      <point x="986" y="1416" type="line"/>
      <point x="923" y="1065" type="line"/>
      <point x="824" y="1065" type="line"/>
      <point x="852" y="1334" type="line"/>
      <point x="840" y="1366"/>
      <point x="747" y="1416"/>
      <point x="687" y="1414" type="qcurve" smooth="yes"/>
      <point x="539" y="1409"/>
      <point x="277" y="1133"/>
      <point x="203" y="826" type="qcurve" smooth="yes"/>
      <point x="131" y="521"/>
      <point x="226" y="123"/>
      <point x="365" y="83" type="qcurve" smooth="yes"/>
      <point x="438" y="62"/>
      <point x="602" y="107"/>
      <point x="643" y="145" type="qcurve"/>
      <point x="729" y="568" type="line"/>
      <point x="585" y="590" type="line"/>
      <point x="600" y="690" type="line"/>
      <point x="966" y="690" type="line"/>
      <point x="947" y="590" type="line"/>
      <point x="835" y="568" type="line"/>
      <point x="743" y="101" type="line"/>
      <point x="742" y="95" type="line"/>
      <point x="691" y="47"/>
      <point x="467" y="-39"/>
      <point x="339" y="-13" type="qcurve" smooth="yes"/>
      <point x="135" y="28"/>
      <point x="0" y="490"/>
    </contour>
  </outline>
</glyph>
<glyph name="H" format="2">
  <advance width="1220"/>
  <unicode hex="0048"/>
  <outline>
    <contour>
      <point x="-27" y="0" type="line"/>
      <point x="-19" y="90" type="line"/>
      <point x="119" y="121" type="line"/>
      <point x="244" y="796" type="line"/>
      <point x="363" y="1387" type="line"/>
      <point x="212" y="1412" type="line"/>
      <point x="223" y="1500" type="line"/>
      <point x="608" y="1500" type="line"/>
      <point x="590" y="1413" type="line"/>
      <point x="468" y="1387" type="line"/>
      <point x="353" y="767" type="line"/>
      <point x="230" y="121" type="line"/>
      <point x="362" y="90" type="line"/>
      <point x="347" y="0" type="line"/>
    </contour>
    <contour>
      <point x="291" y="737" type="line"/>
      <point x="314" y="837" type="line"/>
      <point x="641" y="837" type="line"/>
      <point x="963" y="837" type="line"/>
      <point x="940" y="737" type="line"/>
      <point x="613" y="742" type="line"/>
    </contour>
    <contour>
      <point x="644" y="0" type="line"/>
      <point x="653" y="90" type="line"/>
      <point x="783" y="121" type="line"/>
      <point x="901" y="773" type="line"/>
      <point x="1013" y="1387" type="line"/>
      <point x="893" y="1413" type="line"/>
      <point x="904" y="1501" type="line"/>
      <point x="1275" y="1501" type="line"/>
      <point x="1259" y="1413" type="line"/>
      <point x="1125" y="1387" type="line"/>
      <point x="1011" y="755" type="line"/>
      <point x="890" y="121" type="line"/>
      <point x="1031" y="90" type="line"/>
      <point x="1016" y="0" type="line"/>
    </contour>
  </outline>
</glyph>
<glyph name="I" format="2">
  <advance width="577"/>
  <unicode hex="0049"/>
  <outline>
    <contour>
      <point x="-40" y="0" type="line"/>
      <point x="-38" y="79" type="line"/>
      <point x="122" y="105" type="line"/>
      <point x="263" y="830" type="line"/>
      <point x="367" y="1386" type="line"/>
      <point x="228" y="1412" type="line"/>
      <point x="241" y="1500" type="line"/>
      <point x="632" y="1500" type="line"/>
      <point x="615" y="1412" type="line"/>
      <point x="485" y="1386" type="line"/>
      <point x="373" y="816" type="line"/>
      <point x="232" y="104" type="line"/>
      <point x="385" y="79" type="line"/>
      <point x="383" y="0" type="line"/>
    </contour>
  </outline>
</glyph>
<glyph name="J" format="2">
  <advance width="580"/>
  <unicode hex="004A"/>
  <outline>
    <contour>
      <point x="-200" y="-233" type="qcurve"/>
      <point x="-175" y="-128" type="line"/>
      <point x="-155" y="-135"/>
      <point x="-121" y="-142"/>
      <point x="-84" y="-142" type="qcurve" smooth="yes"/>
      <point x="19" y="-142"/>
      <point x="102" y="-6"/>
      <point x="134" y="151" type="qcurve" smooth="yes"/>
      <point x="255" y="754" type="line"/>
      <point x="375" y="1389" type="line"/>
      <point x="232" y="1414" type="line"/>
      <point x="248" y="1500" type="line"/>
      <point x="643" y="1500" type="line"/>
      <point x="619" y="1414" type="line"/>
      <point x="494" y="1389" type="line"/>
      <point x="363" y="754" type="line"/>
      <point x="251" y="159" type="line" smooth="yes"/>
      <point x="204" y="-91"/>
      <point x="55" y="-259"/>
      <point x="-74" y="-259" type="qcurve" smooth="yes"/>
      <point x="-116" y="-259"/>
      <point x="-178" y="-244"/>
    </contour>
  </outline>
</glyph>
<glyph name="K" format="2">
  <advance width="1071"/>
  <unicode hex="004B"/>
  <outline>
    <contour>
      <point x="-37.0" y="0.0" type="line"/>
      <point x="-35.0" y="78.0" type="line"/>
      <point x="125.0" y="106.0" type="line"/>
      <point x="265.0" y="828.0" type="line"/>
      <point x="367.0" y="1387.0" type="line"/>
      <point x="229.0" y="1412.0" type="line"/>
      <point x="238.0" y="1500.0" type="line"/>
      <point x="637.0" y="1500.0" type="line"/>
      <point x="611.0" y="1412.0" type="line"/>
      <point x="485.0" y="1387.0" type="line"/>
      <point x="375.0" y="816.0" type="line"/>
      <point x="233.0" y="107.0" type="line"/>
      <point x="388.0" y="77.0" type="line"/>
      <point x="378.0" y="0.0" type="line"/>
    </contour>
    <contour>
      <point x="257.0" y="491.0" type="line"/>
      <point x="284.0" y="651.0" type="line"/>
      <point x="897.0" y="1397.0" type="line"/>
      <point x="785.0" y="1409.0" type="line"/>
      <point x="801.0" y="1500.0" type="line"/>
      <point x="1167.0" y="1500.0" type="line"/>
      <point x="1150.0" y="1410.0" type="line"/>
      <point x="1004.0" y="1393.0" type="line"/>
    </contour>
    <contour>
      <point x="503.0" y="843.0" type="line"/>
      <point x="579.0" y="940.0" type="line"/>
      <point x="890.0" y="102.0" type="line"/>
      <point x="1032.0" y="80.0" type="line"/>
      <point x="1018.0" y="0.0" type="line"/>
      <point x="630.0" y="0.0" type="line"/>
      <point x="643.0" y="80.0" type="line"/>
      <point x="777.0" y="102.0" type="line"/>
    </contour>
  </outline>
</glyph>
<glyph name="L" format="2">
  <advance width="884"/>
  <unicode hex="004C"/>
  <outline>
    <contour>
      <point x="-27" y="0" type="line"/>
      <point x="-19" y="90" type="line"/>
      <point x="119" y="118" type="line"/>
      <point x="246" y="794" type="line"/>
      <point x="361" y="1386" type="line"/>
      <point x="212" y="1411" type="line"/>
      <point x="222" y="1500" type="line"/>
      <point x="638" y="1500" type="line"/>
      <point x="622" y="1411" type="line"/>
      <point x="475" y="1386" type="line"/>
      <point x="352" y="775" type="line"/>
      <point x="227" y="121" type="line"/>
      <point x="253" y="92" type="line"/>
      <point x="646" y="92" type="line"/>
      <point x="773" y="371" type="line"/>
      <point x="859" y="371" type="line"/>
      <point x="748" y="0" type="line"/>
    </contour>
  </outline>
</glyph>
<glyph name="M" format="2">
  <advance width="1504"/>
  <unicode hex="004D"/>
  <outline>
    <contour>
      <point x="-16" y="0" type="line"/>
      <point x="-3" y="89" type="line"/>
      <point x="137" y="122" type="line"/>
      <point x="255" y="748" type="line"/>
      <point x="380" y="1389" type="line"/>
      <point x="228" y="1410" type="line"/>
      <point x="238" y="1500" type="line"/>
      <point x="528" y="1500" type="line"/>
      <point x="598" y="756" type="line"/>
      <point x="657" y="132" type="line"/>
      <point x="948" y="771" type="line"/>
      <point x="1280" y="1500" type="line"/>
      <point x="1563" y="1500" type="line"/>
      <point x="1544" y="1410" type="line"/>
      <point x="1408" y="1386" type="line"/>
      <point x="1294" y="753" type="line"/>
      <point x="1173" y="125" type="line"/>
      <point x="1317" y="90" type="line"/>
      <point x="1304" y="0" type="line"/>
      <point x="925" y="0" type="line"/>
      <point x="936" y="91" type="line"/>
      <point x="1066" y="121" type="line"/>
      <point x="1190" y="754" type="line"/>
      <point x="1293" y="1321" type="line"/>
      <point x="1030" y="746" type="line"/>
      <point x="685" y="-7" type="line"/>
      <point x="563" y="-7" type="line"/>
      <point x="496" y="738" type="line"/>
      <point x="447" y="1288" type="line"/>
      <point x="344" y="753" type="line"/>
      <point x="229" y="122" type="line"/>
      <point x="364" y="89" type="line"/>
      <point x="348" y="0" type="line"/>
    </contour>
  </outline>
</glyph>
<glyph name="N" format="2">
  <advance width="1195"/>
  <unicode hex="004E"/>
  <outline>
    <contour>
      <point x="-32" y="0" type="line"/>
      <point x="-24" y="92" type="line"/>
      <point x="113" y="119" type="line"/>
      <point x="240" y="777" type="line"/>
      <point x="357" y="1385" type="line"/>
      <point x="205" y="1412" type="line"/>
      <point x="217" y="1500" type="line"/>
      <point x="486" y="1500" type="line"/>
      <point x="638" y="813" type="line"/>
      <point x="781" y="163" type="line"/>
      <point x="893" y="761" type="line"/>
      <point x="1011" y="1385" type="line"/>
      <point x="888" y="1412" type="line"/>
      <point x="901" y="1500" type="line"/>
      <point x="1247" y="1500" type="line"/>
      <point x="1235" y="1411" type="line"/>
      <point x="1099" y="1384" type="line"/>
      <point x="980" y="751" type="line"/>
      <point x="838" y="-8" type="line"/>
      <point x="715" y="-8" type="line"/>
      <point x="538" y="791" type="line"/>
      <point x="426" y="1299" type="line"/>
      <point x="326" y="761" type="line"/>
      <point x="206" y="115" type="line"/>
      <point x="340" y="89" type="line"/>
      <point x="328" y="0" type="line"/>
    </contour>
  </outline>
</glyph>
<glyph name="O" format="2">
  <advance width="1131"/>
  <unicode hex="004F"/>
  <outline>
    <contour>
      <point x="97" y="891" type="qcurve" smooth="yes"/>
      <point x="176" y="1223.0"/>
      <point x="571" y="1554"/>
      <point x="770.0" y="1508.0" type="qcurve" smooth="yes"/>
      <point x="982" y="1459"/>
      <point x="1125.0" y="1020.0"/>
      <point x="1039.0" y="681.0" type="qcurve" smooth="yes"/>
      <point x="946" y="314"/>
      <point x="576" y="-61"/>
      <point x="353" y="-15" type="qcurve" smooth="yes"/>
      <point x="130" y="31"/>
      <point x="11" y="529"/>
    </contour>
    <contour>
      <point x="204" y="854" type="qcurve" smooth="yes"/>
      <point x="132" y="538"/>
      <point x="229" y="114"/>
      <point x="384.0" y="78.0" type="qcurve" smooth="yes"/>
      <point x="548" y="40"/>
      <point x="852" y="378"/>
      <point x="931" y="704" type="qcurve" smooth="yes"/>
      <point x="1007" y="1019"/>
      <point x="895" y="1365"/>
      <point x="739.0" y="1404.0" type="qcurve" smooth="yes"/>
      <point x="581" y="1444"/>
      <point x="280.0" y="1187.0"/>
    </contour>
  </outline>
</glyph>
<glyph name="P" format="2">
  <advance width="992"/>
  <unicode hex="0050"/>
  <outline>
    <contour>
      <point x="-23" y="0" type="line"/>
      <point x="-19" y="92" type="line"/>
      <point x="117" y="119" type="line"/>
      <point x="249" y="796" type="line"/>
      <point x="362" y="1387" type="line"/>
      <point x="216" y="1408" type="line"/>
      <point x="224" y="1500" type="line"/>
      <point x="589" y="1500" type="line" smooth="yes"/>
      <point x="796" y="1500"/>
      <point x="1013" y="1254"/>
      <point x="982" y="1034" type="qcurve" smooth="yes"/>
      <point x="954" y="833"/>
      <point x="717" y="625"/>
      <point x="494" y="625" type="qcurve" smooth="yes"/>
      <point x="420" y="625"/>
      <point x="319" y="640"/>
      <point x="279" y="654" type="qcurve"/>
      <point x="298" y="746" type="line"/>
      <point x="337" y="737"/>
      <point x="442" y="719"/>
      <point x="481" y="719" type="qcurve" smooth="yes"/>
      <point x="649" y="719"/>
      <point x="849" y="866"/>
      <point x="873" y="1033" type="qcurve" smooth="yes"/>
      <point x="896" y="1193"/>
      <point x="735" y="1396"/>
      <point x="558" y="1396" type="qcurve" smooth="yes"/>
      <point x="493" y="1396" type="line"/>
      <point x="467" y="1374" type="line"/>
      <point x="353" y="764" type="line"/>
      <point x="231" y="119" type="line"/>
      <point x="365" y="89" type="line"/>
      <point x="348" y="0" type="line"/>
    </contour>
  </outline>
</glyph>
<glyph name="Q" format="2">
  <advance width="1131"/>
  <unicode hex="0051"/>
  <outline>
    <contour>
      <point x="97" y="891" type="qcurve" smooth="yes"/>
      <point x="176" y="1223.0"/>
      <point x="571" y="1554"/>
      <point x="770.0" y="1508.0" type="qcurve" smooth="yes"/>
      <point x="982" y="1459"/>
      <point x="1125.0" y="1020.0"/>
      <point x="1039.0" y="681.0" type="qcurve" smooth="yes"/>
      <point x="946" y="314"/>
      <point x="576" y="-61"/>
      <point x="353" y="-15" type="qcurve" smooth="yes"/>
      <point x="130" y="31"/>
      <point x="11" y="529"/>
    </contour>
    <contour>
      <point x="204" y="854" type="qcurve" smooth="yes"/>
      <point x="132" y="538"/>
      <point x="229" y="111"/>
      <point x="384.0" y="78.0" type="qcurve" smooth="yes"/>
      <point x="539" y="45"/>
      <point x="857" y="390"/>
      <point x="931" y="704" type="qcurve" smooth="yes"/>
      <point x="1006.0" y="1019.0"/>
      <point x="895" y="1366"/>
      <point x="739.0" y="1404.0" type="qcurve" smooth="yes"/>
      <point x="592" y="1440"/>
      <point x="279.0" y="1180.0"/>
    </contour>
    <contour>
      <point x="47.0" y="-211.0" type="line"/>
      <point x="87.0" y="-146.0"/>
      <point x="176.0" y="-89.0"/>
      <point x="236.0" y="-75.0" type="qcurve"/>
      <point x="249.0" y="-60.0"/>
      <point x="364.0" y="148.0"/>
      <point x="401.0" y="213.0" type="qcurve" smooth="yes"/>
      <point x="410" y="228"/>
      <point x="420.0" y="243.0"/>
      <point x="427.0" y="253.0" type="qcurve"/>
      <point x="429.0" y="253.0"/>
      <point x="502.0" y="225.0"/>
      <point x="507.0" y="216.0" type="qcurve"/>
      <point x="504.0" y="204.0"/>
      <point x="491" y="185"/>
      <point x="482.0" y="171.0" type="qcurve" smooth="yes"/>
      <point x="456.0" y="128.0"/>
      <point x="350.0" y="-62.0"/>
      <point x="325.0" y="-97.0" type="qcurve"/>
      <point x="537" y="-222" type="line" smooth="yes"/>
      <point x="582" y="-249"/>
      <point x="675.0" y="-225"/>
      <point x="740.0" y="-115.0" type="qcurve"/>
      <point x="803.0" y="-162.0" type="line"/>
      <point x="755.0" y="-268.0"/>
      <point x="640" y="-374.0"/>
      <point x="556.0" y="-374.0" type="qcurve"/>
      <point x="266.0" y="-197.0" type="line"/>
      <point x="214" y="-200.0"/>
      <point x="129.0" y="-249.0"/>
      <point x="97.0" y="-279.0" type="qcurve"/>
    </contour>
  </outline>
</glyph>
<glyph name="R" format="2">
  <advance width="1036"/>
  <unicode hex="0052"/>
  <outline>
    <contour>
      <point x="-26" y="0" type="line"/>
      <point x="-21" y="90" type="line"/>
      <point x="120" y="118" type="line"/>
      <point x="244" y="796" type="line"/>
      <point x="364" y="1389" type="line"/>
      <point x="213" y="1415" type="line"/>
      <point x="222" y="1500" type="line"/>
      <point x="631" y="1500" type="line" smooth="yes"/>
      <point x="824" y="1500"/>
      <point x="1019" y="1287"/>
      <point x="997" y="1103" type="qcurve" smooth="yes"/>
      <point x="974" y="908"/>
      <point x="733" y="713"/>
      <point x="546" y="713" type="qcurve" smooth="yes"/>
      <point x="485" y="713"/>
      <point x="352" y="722"/>
      <point x="301" y="727" type="qcurve"/>
      <point x="318" y="799" type="line"/>
      <point x="382" y="799" type="line"/>
      <point x="526" y="799" type="line" smooth="yes"/>
      <point x="698" y="799"/>
      <point x="877" y="960"/>
      <point x="891" y="1100" type="qcurve" smooth="yes"/>
      <point x="906" y="1241"/>
      <point x="770" y="1404"/>
      <point x="642" y="1404" type="qcurve" smooth="yes"/>
      <point x="488" y="1404" type="line"/>
      <point x="469" y="1382" type="line"/>
      <point x="345" y="754" type="line"/>
      <point x="230" y="119" type="line"/>
      <point x="391" y="93" type="line"/>
      <point x="388" y="0" type="line"/>
    </contour>
    <contour>
      <point x="560" y="748" type="line"/>
      <point x="657" y="759" type="line"/>
      <point x="667" y="697" type="line" smooth="yes"/>
      <point x="709" y="436"/>
      <point x="825" y="85"/>
      <point x="970" y="86" type="qcurve"/>
      <point x="964" y="0" type="line"/>
      <point x="901" y="3" type="line" smooth="yes"/>
      <point x="735" y="11"/>
      <point x="606" y="392"/>
      <point x="569" y="701" type="qcurve" smooth="yes"/>
    </contour>
  </outline>
</glyph>
<glyph name="S" format="2">
  <advance width="813"/>
  <unicode hex="0053"/>
  <outline>
    <contour>
      <point x="-85.0" y="11.0" type="line"/>
      <point x="0.0" y="486.0" type="line"/>
      <point x="90.0" y="486.0" type="line"/>
      <point x="77.0" y="348.0" type="line" smooth="yes"/>
      <point x="67" y="239"/>
      <point x="193.0" y="67.0"/>
      <point x="318" y="67.0" type="qcurve" smooth="yes"/>
      <point x="439.0" y="67.0"/>
      <point x="598.0" y="220"/>
      <point x="614.0" y="359.0" type="qcurve" smooth="yes"/>
      <point x="628" y="484"/>
      <point x="513" y="649"/>
      <point x="373.0" y="770.0" type="qcurve" smooth="yes"/>
      <point x="260" y="868"/>
      <point x="130" y="1100"/>
      <point x="153.0" y="1239.0" type="qcurve" smooth="yes"/>
      <point x="175" y="1371"/>
      <point x="377" y="1517"/>
      <point x="503" y="1517.0" type="qcurve" smooth="yes"/>
      <point x="594" y="1517.0"/>
      <point x="725.0" y="1441.0"/>
      <point x="753.0" y="1403.0" type="qcurve"/>
      <point x="795.0" y="1503.0" type="line"/>
      <point x="866.0" y="1489.0" type="line"/>
      <point x="801.0" y="1065.0" type="line"/>
      <point x="718.0" y="1065.0" type="line"/>
      <point x="731" y="1217" type="line" smooth="yes"/>
      <point x="739" y="1308"/>
      <point x="604" y="1414"/>
      <point x="493" y="1414.0" type="qcurve" smooth="yes"/>
      <point x="402" y="1414.0"/>
      <point x="281" y="1322"/>
      <point x="261.0" y="1228.0" type="qcurve" smooth="yes"/>
      <point x="239" y="1123"/>
      <point x="332" y="970"/>
      <point x="469.0" y="851.0" type="qcurve" smooth="yes"/>
      <point x="590.0" y="746.0"/>
      <point x="740" y="515"/>
      <point x="720" y="344" type="qcurve" smooth="yes"/>
      <point x="701" y="180"/>
      <point x="498" y="-19.0"/>
      <point x="329.0" y="-19.0" type="qcurve" smooth="yes"/>
      <point x="237" y="-19"/>
      <point x="86.0" y="49.0"/>
      <point x="44.0" y="108.0" type="qcurve"/>
      <point x="-12.0" y="-11.0" type="line"/>
    </contour>
  </outline>
</glyph>
<glyph name="T" format="2">
  <advance width="1013"/>
  <unicode hex="0054"/>
  <outline>
    <contour>
      <point x="106" y="1119" type="line"/>
      <point x="181" y="1500" type="line"/>
      <point x="1123" y="1500" type="line"/>
      <point x="1058" y="1119" type="line"/>
      <point x="983" y="1119" type="line"/>
      <point x="981" y="1406" type="line"/>
      <point x="707" y="1406" type="line"/>
      <point x="685" y="1386" type="line"/>
      <point x="565" y="754" type="line"/>
      <point x="436" y="105" type="line"/>
      <point x="595" y="79" type="line"/>
      <point x="587" y="0" type="line"/>
      <point x="161" y="0" type="line"/>
      <point x="163" y="80" type="line"/>
      <point x="326" y="105" type="line"/>
      <point x="453" y="754" type="line"/>
      <point x="574" y="1386" type="line"/>
      <point x="570" y="1406" type="line"/>
      <point x="288" y="1406" type="line"/>
      <point x="185" y="1119" type="line"/>
    </contour>
  </outline>
</glyph>
<glyph name="U" format="2">
  <advance width="1175"/>
  <unicode hex="0055"/>
  <outline>
    <contour>
      <point x="189" y="1414" type="line"/>
      <point x="203" y="1500" type="line"/>
      <point x="603" y="1500" type="line"/>
      <point x="589" y="1414" type="line"/>
      <point x="439" y="1387" type="line"/>
      <point x="326" y="801" type="line" smooth="yes"/>
      <point x="282" y="573"/>
      <point x="236" y="351"/>
      <point x="236" y="273" type="qcurve" smooth="yes"/>
      <point x="236" y="188"/>
      <point x="357" y="68"/>
      <point x="474" y="68" type="qcurve" smooth="yes"/>
      <point x="624" y="68"/>
      <point x="812" y="299"/>
      <point x="849" y="498" type="qcurve" smooth="yes"/>
      <point x="906" y="801" type="line"/>
      <point x="1018" y="1387" type="line"/>
      <point x="884" y="1414" type="line"/>
      <point x="897" y="1500" type="line"/>
      <point x="1255" y="1500" type="line"/>
      <point x="1241" y="1414" type="line"/>
      <point x="1107" y="1387" type="line"/>
      <point x="995" y="801" type="line"/>
      <point x="938" y="480" type="line" smooth="yes"/>
      <point x="896" y="243"/>
      <point x="659" y="-25"/>
      <point x="456" y="-25" type="qcurve" smooth="yes"/>
      <point x="294" y="-25"/>
      <point x="127" y="158"/>
      <point x="127" y="269" type="qcurve" smooth="yes"/>
      <point x="127" y="372"/>
      <point x="172" y="585"/>
      <point x="216" y="801" type="qcurve" smooth="yes"/>
      <point x="333" y="1387" type="line"/>
    </contour>
  </outline>
</glyph>
<glyph name="V" format="2">
  <advance width="1069"/>
  <unicode hex="0056"/>
  <outline>
    <contour>
      <point x="74" y="1424" type="line"/>
      <point x="83" y="1500" type="line"/>
      <point x="506" y="1500" type="line"/>
      <point x="497" y="1424" type="line"/>
      <point x="329" y="1398" type="line"/>
      <point x="367" y="815" type="line"/>
      <point x="411" y="137" type="line"/>
      <point x="421" y="137" type="line"/>
      <point x="729" y="823" type="line"/>
      <point x="977" y="1387" type="line"/>
      <point x="825" y="1424" type="line"/>
      <point x="840" y="1500" type="line"/>
      <point x="1235" y="1500" type="line"/>
      <point x="1223" y="1424" type="line"/>
      <point x="1073" y="1390" type="line"/>
      <point x="800" y="782" type="line"/>
      <point x="447" y="-7" type="line"/>
      <point x="316" y="-7" type="line"/>
      <point x="262" y="806" type="line"/>
      <point x="222" y="1398" type="line"/>
    </contour>
  </outline>
</glyph>
<glyph name="W" format="2">
  <advance width="1448"/>
  <unicode hex="0057"/>
  <outline>
    <contour>
      <point x="73" y="1424" type="line"/>
      <point x="79" y="1500" type="line"/>
      <point x="475" y="1500" type="line"/>
      <point x="470" y="1424" type="line"/>
      <point x="315" y="1396" type="line"/>
      <point x="327" y="764" type="line"/>
      <point x="341" y="132" type="line"/>
      <point x="350" y="132" type="line"/>
      <point x="585" y="720" type="line"/>
      <point x="771" y="1184" type="line"/>
      <point x="782" y="1025" type="line"/>
      <point x="647" y="678" type="line"/>
      <point x="382" y="-5" type="line"/>
      <point x="247" y="-5" type="line"/>
      <point x="227" y="763" type="line"/>
      <point x="208" y="1395" type="line"/>
    </contour>
    <contour>
      <point x="579" y="1424" type="line"/>
      <point x="585" y="1500" type="line"/>
      <point x="986" y="1500" type="line"/>
      <point x="976" y="1424" type="line"/>
      <point x="817" y="1396" type="line"/>
      <point x="833" y="773" type="line"/>
      <point x="848" y="130" type="line"/>
      <point x="858" y="130" type="line"/>
      <point x="1084" y="709" type="line"/>
      <point x="1342" y="1387" type="line"/>
      <point x="1205" y="1420" type="line"/>
      <point x="1225" y="1500" type="line"/>
      <point x="1610" y="1500" type="line"/>
      <point x="1589" y="1424" type="line"/>
      <point x="1441" y="1391" type="line"/>
      <point x="1154" y="680" type="line"/>
      <point x="886" y="-5" type="line"/>
      <point x="754" y="-5" type="line"/>
      <point x="733" y="767" type="line"/>
      <point x="713" y="1395" type="line"/>
    </contour>
  </outline>
</glyph>
<glyph name="X" format="2">
  <advance width="1037"/>
  <unicode hex="0058"/>
  <outline>
    <contour>
      <point x="-117" y="0" type="line"/>
      <point x="-98" y="88" type="line"/>
      <point x="48" y="113" type="line"/>
      <point x="519" y="817" type="line"/>
      <point x="542" y="817" type="line"/>
      <point x="914" y="1384" type="line"/>
      <point x="784" y="1421" type="line"/>
      <point x="801" y="1500" type="line"/>
      <point x="1178" y="1500" type="line"/>
      <point x="1163" y="1421" type="line"/>
      <point x="1014" y="1394" type="line"/>
      <point x="571" y="722" type="line"/>
      <point x="551" y="721" type="line"/>
      <point x="155" y="111" type="line"/>
      <point x="299" y="88" type="line"/>
      <point x="290" y="0" type="line"/>
    </contour>
    <contour>
      <point x="194" y="1421" type="line"/>
      <point x="197" y="1500" type="line"/>
      <point x="617" y="1500" type="line"/>
      <point x="614" y="1421" type="line"/>
      <point x="458" y="1396" type="line"/>
      <point x="587" y="814" type="line"/>
      <point x="744" y="109" type="line"/>
      <point x="920" y="83" type="line"/>
      <point x="909" y="0" type="line"/>
      <point x="491" y="0" type="line"/>
      <point x="502" y="83" type="line"/>
      <point x="635" y="108" type="line"/>
      <point x="501" y="711" type="line"/>
      <point x="349" y="1393" type="line"/>
    </contour>
  </outline>
</glyph>
<glyph name="Y" format="2">
  <advance width="1036"/>
  <unicode hex="0059"/>
  <outline>
    <contour>
      <point x="69" y="1418" type="line"/>
      <point x="71" y="1500" type="line"/>
      <point x="446" y="1500" type="line"/>
      <point x="444" y="1418" type="line"/>
      <point x="307" y="1397" type="line"/>
      <point x="423" y="1025" type="line"/>
      <point x="522" y="706" type="line"/>
      <point x="758" y="1087" type="line"/>
      <point x="943" y="1385" type="line"/>
      <point x="811" y="1418" type="line"/>
      <point x="830" y="1500" type="line"/>
      <point x="1207" y="1500" type="line"/>
      <point x="1198" y="1418" type="line"/>
      <point x="1040" y="1384" type="line"/>
      <point x="825" y="1040" type="line"/>
      <point x="550" y="598" type="line"/>
      <point x="455" y="108" type="line"/>
      <point x="626" y="82" type="line"/>
      <point x="613" y="0" type="line"/>
      <point x="170" y="0" type="line"/>
      <point x="176" y="81" type="line"/>
      <point x="346" y="108" type="line"/>
      <point x="444" y="593" type="line"/>
      <point x="323" y="980" type="line"/>
      <point x="194" y="1393" type="line"/>
    </contour>
  </outline>
</glyph>
<glyph name="Z" format="2">
  <advance width="907"/>
  <unicode hex="005A"/>
  <outline>
    <contour>
      <point x="-40" y="0" type="line"/>
      <point x="-48" y="62" type="line"/>
      <point x="840" y="1388" type="line"/>
      <point x="830" y="1404" type="line"/>
      <point x="313" y="1404" type="line"/>
      <point x="222" y="1171" type="line"/>
      <point x="141" y="1171" type="line"/>
      <point x="212" y="1500" type="line"/>
      <point x="999" y="1500" type="line"/>
      <point x="991" y="1429" type="line"/>
      <point x="107" y="108" type="line"/>
      <point x="117" y="92" type="line"/>
      <point x="621" y="92" type="line"/>
      <point x="756" y="377" type="line"/>
      <point x="835" y="377" type="line"/>
      <point x="730" y="0" type="line"/>
    </contour>
  </outline>
</glyph>
<glyph name="asciicircum" format="2">
  <advance width="1105"/>
  <unicode hex="005E"/>
  <outline>
    <contour>
      <point x="200.0" y="1002.0" type="line"/>
      <point x="259.0" y="1064.0"/>
      <point x="689.0" y="1544.0"/>
      <point x="689.0" y="1544.0" type="qcurve"/>
      <point x="689.0" y="1544.0"/>
      <point x="983.0" y="1013.0"/>
      <point x="1029.0" y="947.0" type="qcurve"/>
      <point x="944.0" y="899.0" type="line"/>
      <point x="871.0" y="1021.0"/>
      <point x="654.0" y="1384.0"/>
      <point x="654.0" y="1384.0" type="qcurve"/>
      <point x="654.0" y="1384.0"/>
      <point x="374.0" y="1057.0"/>
      <point x="250.0" y="930.0" type="qcurve"/>
    </contour>
  </outline>
</glyph>
<glyph name="underscore" format="2">
  <advance width="677"/>
  <unicode hex="005F"/>
  <outline>
    <contour>
      <point x="-260.0" y="-411.0" type="line"/>
      <point x="-249.0" y="-331.0" type="line"/>
      <point x="195.0" y="-316.0" type="line"/>
      <point x="633.0" y="-331.0" type="line"/>
      <point x="622.0" y="-411.0" type="line"/>
      <point x="184.0" y="-419.0" type="line"/>
    </contour>
  </outline>
</glyph>
<glyph name="grave" format="2">
  <advance width="1024"/>
  <unicode hex="0060"/>
  <outline>
    <contour>
      <point x="389.0" y="1379.0" type="qcurve" smooth="yes"/>
      <point x="389" y="1400"/>
      <point x="431" y="1447"/>
      <point x="460" y="1447.0" type="qcurve" smooth="yes"/>
      <point x="483" y="1447"/>
      <point x="523" y="1419"/>
      <point x="539.0" y="1397.0" type="qcurve" smooth="yes"/>
      <point x="715.0" y="1147.0" type="line"/>
      <point x="675.0" y="1105.0" type="line"/>
      <point x="439.0" y="1306.0" type="line" smooth="yes"/>
      <point x="426" y="1317"/>
      <point x="389.0" y="1354"/>
    </contour>
  </outline>
</glyph>
<glyph name="a" format="2">
  <advance width="872"/>
  <unicode hex="0061"/>
  <outline>
    <contour>
      <point x="2" y="339" type="qcurve" smooth="yes"/>
      <point x="21" y="582"/>
      <point x="320" y="1051"/>
      <point x="493" y="1051" type="qcurve" smooth="yes"/>
      <point x="569" y="1051"/>
      <point x="651" y="994"/>
      <point x="670" y="972" type="qcurve"/>
      <point x="714" y="1050" type="line"/>
      <point x="771" y="1050" type="line"/>
      <point x="783" y="960" type="line"/>
      <point x="641" y="389" type="line"/>
      <point x="604" y="215" type="line"/>
      <point x="620" y="156"/>
      <point x="660" y="66"/>
      <point x="692" y="31" type="qcurve"/>
      <point x="586" y="-12" type="line"/>
      <point x="548" y="31"/>
      <point x="513" y="113"/>
      <point x="507" y="151" type="qcurve"/>
      <point x="435" y="67"/>
      <point x="299" y="-13"/>
      <point x="200" y="-13" type="qcurve" smooth="yes"/>
      <point x="115" y="-13"/>
      <point x="-14" y="138"/>
    </contour>
    <contour>
      <point x="112" y="327" type="qcurve" smooth="yes"/>
      <point x="101" y="196"/>
      <point x="168" y="79"/>
      <point x="246" y="79" type="qcurve" smooth="yes"/>
      <point x="339" y="79"/>
      <point x="504" y="240"/>
      <point x="545" y="408" type="qcurve" smooth="yes"/>
      <point x="649" y="838" type="line"/>
      <point x="649" y="876"/>
      <point x="556" y="959"/>
      <point x="485" y="959" type="qcurve" smooth="yes"/>
      <point x="355" y="959"/>
      <point x="128" y="522"/>
    </contour>
  </outline>
</glyph>
<glyph name="b" format="2">
  <advance width="894"/>
  <unicode hex="0062"/>
  <outline>
    <contour>
      <point x="74.0" y="229.0" type="qcurve" smooth="yes"/>
      <point x="171.0" y="644.0" type="line"/>
      <point x="355.0" y="1466.0" type="line"/>
      <point x="225.0" y="1490.0" type="line"/>
      <point x="242.0" y="1546.0" type="line"/>
      <point x="469.0" y="1608.0" type="line"/>
      <point x="484.0" y="1579.0" type="line"/>
      <point x="272.0" y="631.0" type="line"/>
      <point x="171" y="177" type="line" smooth="yes"/>
      <point x="157" y="112"/>
      <point x="210" y="70"/>
      <point x="269" y="70.0" type="qcurve" smooth="yes"/>
      <point x="423" y="70"/>
      <point x="683" y="464"/>
      <point x="703" y="706" type="qcurve" smooth="yes"/>
      <point x="716" y="860"/>
      <point x="662.0" y="949.0"/>
      <point x="597.0" y="949.0" type="qcurve" smooth="yes"/>
      <point x="518" y="949"/>
      <point x="334.0" y="782.0"/>
      <point x="254.0" y="659.0" type="qcurve"/>
      <point x="279.0" y="793.0" type="line"/>
      <point x="350.0" y="909.0"/>
      <point x="533" y="1064"/>
      <point x="625.0" y="1064.0" type="qcurve" smooth="yes"/>
      <point x="725.0" y="1064.0"/>
      <point x="840" y="897"/>
      <point x="825" y="712" type="qcurve" smooth="yes"/>
      <point x="803" y="446"/>
      <point x="460.0" y="-19.0"/>
      <point x="252.0" y="-19.0" type="qcurve" smooth="yes"/>
      <point x="147.0" y="-19.0"/>
      <point x="44" y="102"/>
    </contour>
  </outline>
</glyph>
<glyph name="c" format="2">
  <advance width="738"/>
  <unicode hex="0063"/>
  <outline>
    <contour>
      <point x="34" y="527" type="qcurve" smooth="yes"/>
      <point x="91" y="769"/>
      <point x="345" y="1071"/>
      <point x="506" y="1071" type="qcurve" smooth="yes"/>
      <point x="629" y="1071"/>
      <point x="749" y="938"/>
      <point x="744" y="840" type="qcurve" smooth="yes"/>
      <point x="740" y="766"/>
      <point x="681" y="716"/>
      <point x="642" y="716" type="qcurve"/>
      <point x="608" y="757" type="line"/>
      <point x="608" y="911" type="line" smooth="yes"/>
      <point x="608.0" y="953.0"/>
      <point x="547" y="990"/>
      <point x="513" y="990" type="qcurve" smooth="yes"/>
      <point x="393" y="990"/>
      <point x="187" y="701"/>
      <point x="144" y="498" type="qcurve" smooth="yes"/>
      <point x="99" y="286"/>
      <point x="167" y="77"/>
      <point x="258" y="77" type="qcurve" smooth="yes"/>
      <point x="351" y="77"/>
      <point x="536" y="202"/>
      <point x="590" y="310" type="qcurve"/>
      <point x="637" y="278" type="line"/>
      <point x="635" y="249" type="line"/>
      <point x="576" y="132"/>
      <point x="380" y="-17"/>
      <point x="253" y="-17" type="qcurve" smooth="yes"/>
      <point x="102" y="-17"/>
      <point x="-29" y="261"/>
    </contour>
  </outline>
</glyph>
<glyph name="d" format="2">
  <advance width="884"/>
  <unicode hex="0064"/>
  <outline>
    <contour>
      <point x="4" y="320" type="qcurve" smooth="yes"/>
      <point x="31" y="584"/>
      <point x="345" y="1047"/>
      <point x="627" y="1043" type="qcurve" smooth="yes"/>
      <point x="704" y="1043" type="line"/>
      <point x="796" y="1471" type="line"/>
      <point x="636" y="1488" type="line"/>
      <point x="655" y="1545" type="line"/>
      <point x="899" y="1612" type="line"/>
      <point x="921" y="1589" type="line"/>
      <point x="667" y="469" type="line"/>
      <point x="609" y="134" type="line"/>
      <point x="758" y="124" type="line"/>
      <point x="744" y="44" type="line"/>
      <point x="582" y="-12" type="line"/>
      <point x="517" y="88" type="line"/>
      <point x="524" y="191" type="line"/>
      <point x="470" y="100"/>
      <point x="303" y="-12"/>
      <point x="198" y="-12" type="qcurve" smooth="yes"/>
      <point x="104" y="-12"/>
      <point x="-13" y="158"/>
    </contour>
    <contour>
      <point x="113" y="310" type="qcurve" smooth="yes"/>
      <point x="103" y="186"/>
      <point x="166" y="79"/>
      <point x="226" y="80.0" type="qcurve" smooth="yes"/>
      <point x="325" y="82"/>
      <point x="515" y="249"/>
      <point x="551" y="403" type="qcurve" smooth="yes"/>
      <point x="652" y="834" type="line" smooth="yes"/>
      <point x="669" y="907"/>
      <point x="657" y="938"/>
      <point x="552" y="938.0" type="qcurve" smooth="yes"/>
      <point x="372" y="938"/>
      <point x="128" y="500"/>
    </contour>
  </outline>
</glyph>
<glyph name="e" format="2">
  <advance width="721"/>
  <unicode hex="0065"/>
  <outline>
    <contour>
      <point x="41" y="533" type="qcurve" smooth="yes"/>
      <point x="104" y="787"/>
      <point x="354" y="1073"/>
      <point x="501" y="1073.0" type="qcurve" smooth="yes"/>
      <point x="596" y="1073"/>
      <point x="687" y="936"/>
      <point x="683" y="848" type="qcurve" smooth="yes"/>
      <point x="681" y="794"/>
      <point x="655" y="649"/>
      <point x="649" y="616" type="qcurve"/>
      <point x="658" y="594" type="line"/>
      <point x="641" y="529" type="line"/>
      <point x="616" y="533"/>
      <point x="457" y="533"/>
      <point x="403" y="532" type="qcurve" smooth="yes"/>
      <point x="129" y="527" type="line"/>
      <point x="154" y="610" type="line"/>
      <point x="531" y="613" type="line"/>
      <point x="539" y="639"/>
      <point x="570" y="778"/>
      <point x="574" y="858" type="qcurve" smooth="yes"/>
      <point x="577" y="923"/>
      <point x="533" y="980"/>
      <point x="459" y="980" type="qcurve" smooth="yes"/>
      <point x="368" y="980"/>
      <point x="189" y="679"/>
      <point x="145" y="503" type="qcurve" smooth="yes"/>
      <point x="96" y="309"/>
      <point x="151" y="76"/>
      <point x="240" y="78" type="qcurve" smooth="yes"/>
      <point x="342" y="80"/>
      <point x="521" y="224"/>
      <point x="557" y="292" type="qcurve"/>
      <point x="611" y="268" type="line"/>
      <point x="611" y="239" type="line"/>
      <point x="535" y="116"/>
      <point x="359" y="-8"/>
      <point x="224" y="-11" type="qcurve" smooth="yes"/>
      <point x="69" y="-13"/>
      <point x="-28" y="251"/>
    </contour>
  </outline>
</glyph>
<glyph name="f" format="2">
  <advance width="484"/>
  <unicode hex="0066"/>
  <outline>
    <contour>
      <point x="-299" y="-415" type="line"/>
      <point x="-283" y="-359" type="line"/>
      <point x="-218" y="-359" type="line" smooth="yes"/>
      <point x="-93" y="-359"/>
      <point x="-7" y="-206"/>
      <point x="21" y="-50" type="qcurve" smooth="yes"/>
      <point x="194" y="922" type="line"/>
      <point x="199" y="952" type="line"/>
      <point x="263" y="1269" type="line" smooth="yes"/>
      <point x="302" y="1461"/>
      <point x="404" y="1582"/>
      <point x="489" y="1582" type="qcurve" smooth="yes"/>
      <point x="544" y="1582"/>
      <point x="622" y="1529"/>
      <point x="622" y="1470" type="qcurve" smooth="yes"/>
      <point x="622" y="1433"/>
      <point x="586" y="1387"/>
      <point x="558" y="1387" type="qcurve" smooth="yes"/>
      <point x="537" y="1387"/>
      <point x="511" y="1406"/>
      <point x="505" y="1429" type="qcurve" smooth="yes"/>
      <point x="498" y="1455"/>
      <point x="474" y="1498"/>
      <point x="453" y="1498" type="qcurve" smooth="yes"/>
      <point x="432" y="1498"/>
      <point x="396" y="1430"/>
      <point x="363" y="1261" type="qcurve" smooth="yes"/>
      <point x="301" y="948" type="line"/>
      <point x="301" y="932" type="line"/>
      <point x="147" y="67" type="line" smooth="yes"/>
      <point x="93" y="-239"/>
      <point x="-23" y="-475"/>
      <point x="-212" y="-475" type="qcurve"/>
    </contour>
    <contour>
      <point x="71" y="931" type="line"/>
      <point x="85" y="1005" type="line"/>
      <point x="238" y="1030" type="line"/>
      <point x="483" y="1030" type="line"/>
      <point x="451" y="934" type="line"/>
      <point x="261" y="939" type="line"/>
      <point x="254" y="921" type="line"/>
    </contour>
  </outline>
</glyph>
<glyph name="g" format="2">
  <advance width="861"/>
  <unicode hex="0067"/>
  <outline>
    <contour>
      <point x="2" y="325" type="qcurve" smooth="yes"/>
      <point x="23" y="579"/>
      <point x="318" y="1052"/>
      <point x="494" y="1052" type="qcurve" smooth="yes"/>
      <point x="570" y="1052"/>
      <point x="662" y="981"/>
      <point x="681" y="955" type="qcurve"/>
      <point x="714" y="1050" type="line"/>
      <point x="771" y="1050" type="line"/>
      <point x="784" y="958" type="line"/>
      <point x="668" y="490" type="line" smooth="yes"/>
      <point x="627" y="323"/>
      <point x="599" y="181"/>
      <point x="552" y="-5" type="qcurve" smooth="yes"/>
      <point x="482" y="-282"/>
      <point x="239" y="-475"/>
      <point x="48" y="-475" type="qcurve"/>
      <point x="-39" y="-415" type="line"/>
      <point x="-22" y="-357" type="line"/>
      <point x="73" y="-357" type="line" smooth="yes"/>
      <point x="258" y="-357"/>
      <point x="398" y="-185"/>
      <point x="449" y="-8" type="qcurve" smooth="yes"/>
      <point x="494" y="147" type="line"/>
      <point x="467" y="99"/>
      <point x="302" y="-14"/>
      <point x="200" y="-14" type="qcurve" smooth="yes"/>
      <point x="116" y="-14"/>
      <point x="-14" y="137"/>
    </contour>
    <contour>
      <point x="114" y="327" type="qcurve" smooth="yes"/>
      <point x="101" y="190"/>
      <point x="174" y="81"/>
      <point x="246" y="81" type="qcurve" smooth="yes"/>
      <point x="339" y="81"/>
      <point x="504" y="235"/>
      <point x="544" y="402" type="qcurve" smooth="yes"/>
      <point x="654" y="856" type="line"/>
      <point x="643" y="891"/>
      <point x="561" y="958"/>
      <point x="485" y="958" type="qcurve" smooth="yes"/>
      <point x="357" y="958"/>
      <point x="132" y="514"/>
    </contour>
  </outline>
</glyph>
<glyph name="h" format="2">
  <advance width="880"/>
  <unicode hex="0068"/>
  <outline>
    <contour>
      <point x="39" y="-23" type="line"/>
      <point x="10" y="38" type="line"/>
      <point x="131" y="584" type="line"/>
      <point x="331" y="1466" type="line"/>
      <point x="201" y="1490" type="line"/>
      <point x="218" y="1546" type="line"/>
      <point x="445" y="1608" type="line"/>
      <point x="460" y="1578" type="line"/>
      <point x="250" y="655" type="line"/>
      <point x="140" y="127" type="line"/>
      <point x="194" y="24" type="line"/>
    </contour>
    <contour>
      <point x="518" y="-17" type="line"/>
      <point x="477" y="66" type="line"/>
      <point x="644" y="774" type="line" smooth="yes"/>
      <point x="663" y="854"/>
      <point x="618" y="946"/>
      <point x="558" y="946" type="qcurve" smooth="yes"/>
      <point x="492" y="946"/>
      <point x="327" y="784"/>
      <point x="218" y="593" type="qcurve"/>
      <point x="203" y="667" type="line"/>
      <point x="331" y="885"/>
      <point x="526" y="1061"/>
      <point x="634" y="1061" type="qcurve" smooth="yes"/>
      <point x="715" y="1061"/>
      <point x="776" y="907"/>
      <point x="733" y="728" type="qcurve" smooth="yes"/>
      <point x="589" y="124" type="line"/>
      <point x="739" y="124" type="line"/>
      <point x="737" y="43" type="line"/>
    </contour>
  </outline>
</glyph>
<glyph name="i" format="2">
  <advance width="447"/>
  <unicode hex="0069"/>
  <outline>
    <contour>
      <point x="80" y="-17" type="line"/>
      <point x="38" y="64" type="line"/>
      <point x="137" y="541" type="line"/>
      <point x="209" y="924" type="line"/>
      <point x="33" y="916" type="line"/>
      <point x="52" y="1014" type="line"/>
      <point x="296" y="1052" type="line"/>
      <point x="334" y="1038" type="line"/>
      <point x="347" y="1012" type="line"/>
      <point x="295" y="802" type="line"/>
      <point x="152" y="124" type="line"/>
      <point x="329" y="124" type="line"/>
      <point x="328" y="43" type="line"/>
    </contour>
    <contour>
      <point x="216" y="1363" type="qcurve" smooth="yes"/>
      <point x="220" y="1409"/>
      <point x="291" y="1467"/>
      <point x="329" y="1467" type="qcurve" smooth="yes"/>
      <point x="375" y="1467"/>
      <point x="432" y="1406"/>
      <point x="428" y="1363" type="qcurve" smooth="yes"/>
      <point x="423" y="1318"/>
      <point x="351" y="1257"/>
      <point x="312" y="1257" type="qcurve" smooth="yes"/>
      <point x="277" y="1257"/>
      <point x="213" y="1312"/>
    </contour>
  </outline>
</glyph>
<glyph name="j" format="2">
  <advance width="469"/>
  <unicode hex="006A"/>
  <outline>
    <contour>
      <point x="243" y="928" type="qcurve"/>
      <point x="63" y="918" type="line"/>
      <point x="80" y="1013" type="line"/>
      <point x="328" y="1053" type="line"/>
      <point x="368" y="1038" type="line"/>
      <point x="381" y="1005" type="line"/>
      <point x="326" y="785" type="line"/>
      <point x="182" y="94" type="line" smooth="yes"/>
      <point x="116" y="-221"/>
      <point x="-33" y="-475"/>
      <point x="-213" y="-475" type="qcurve"/>
      <point x="-299" y="-416" type="line"/>
      <point x="-283" y="-359" type="line"/>
      <point x="-218" y="-359" type="line" smooth="yes"/>
      <point x="-87" y="-359"/>
      <point x="23" y="-171"/>
      <point x="78" y="83" type="qcurve" smooth="yes"/>
      <point x="123" y="291"/>
      <point x="223" y="797"/>
    </contour>
    <contour>
      <point x="207" y="1361" type="qcurve" smooth="yes"/>
      <point x="213" y="1412"/>
      <point x="278" y="1468"/>
      <point x="330" y="1468" type="qcurve" smooth="yes"/>
      <point x="378" y="1468"/>
      <point x="435" y="1409"/>
      <point x="430" y="1361" type="qcurve" smooth="yes"/>
      <point x="423" y="1311"/>
      <point x="358" y="1256"/>
      <point x="307" y="1256" type="qcurve" smooth="yes"/>
      <point x="259" y="1256"/>
      <point x="202" y="1315"/>
    </contour>
  </outline>
</glyph>
<glyph name="k" format="2">
  <advance width="839"/>
  <unicode hex="006B"/>
  <outline>
    <contour>
      <point x="39" y="-23" type="line"/>
      <point x="10" y="38" type="line"/>
      <point x="132" y="583" type="line"/>
      <point x="330" y="1466" type="line"/>
      <point x="200" y="1490" type="line"/>
      <point x="218" y="1546" type="line"/>
      <point x="444" y="1609" type="line"/>
      <point x="461" y="1577" type="line"/>
      <point x="267" y="741" type="line"/>
      <point x="334" y="867"/>
      <point x="550" y="1062"/>
      <point x="640" y="1062" type="qcurve" smooth="yes"/>
      <point x="716" y="1062"/>
      <point x="782" y="940"/>
      <point x="772" y="853" type="qcurve" smooth="yes"/>
      <point x="765" y="784" type="line"/>
      <point x="759" y="730" type="line"/>
      <point x="534" y="536" type="line"/>
      <point x="626" y="120" type="line"/>
      <point x="749" y="141" type="line"/>
      <point x="754" y="65" type="line"/>
      <point x="639" y="-2" type="line" smooth="yes"/>
      <point x="591" y="-30"/>
      <point x="548" y="20"/>
      <point x="538" y="51" type="qcurve"/>
      <point x="445" y="477" type="line"/>
      <point x="139" y="221" type="line"/>
      <point x="122" y="290" type="line"/>
      <point x="685" y="766" type="line"/>
      <point x="690" y="835"/>
      <point x="662" y="948"/>
      <point x="601" y="948" type="qcurve" smooth="yes"/>
      <point x="525" y="948"/>
      <point x="330" y="775"/>
      <point x="242" y="614" type="qcurve"/>
      <point x="211" y="467" type="line"/>
      <point x="139" y="127" type="line"/>
      <point x="195" y="22" type="line"/>
    </contour>
  </outline>
</glyph>
<glyph name="l" format="2">
  <advance width="435"/>
  <unicode hex="006C"/>
  <outline>
    <contour>
      <point x="104.0" y="-32.0" type="line"/>
      <point x="63.0" y="-25.0" type="line"/>
      <point x="202.0" y="587.0" type="line"/>
      <point x="398.0" y="1470.0" type="line"/>
      <point x="217.0" y="1493.0" type="line"/>
      <point x="234.0" y="1551.0" type="line"/>
      <point x="485.0" y="1610.0" type="line"/>
      <point x="503.0" y="1577.0" type="line"/>
      <point x="285.0" y="568.0" type="line"/>
      <point x="186.0" y="126.0" type="line"/>
      <point x="380.0" y="128.0" type="line"/>
      <point x="378.0" y="44.0" type="line"/>
    </contour>
  </outline>
</glyph>
<glyph name="m" format="2">
  <advance width="1308"/>
  <unicode hex="006D"/>
  <outline>
    <contour>
      <point x="46" y="-22" type="line"/>
      <point x="14" y="38" type="line"/>
      <point x="135" y="584" type="line"/>
      <point x="197" y="921" type="line"/>
      <point x="31" y="921" type="line"/>
      <point x="49" y="1018" type="line"/>
      <point x="281" y="1049" type="line"/>
      <point x="317" y="1049" type="line"/>
      <point x="277" y="787" type="line"/>
      <point x="249" y="639" type="line"/>
      <point x="148" y="133" type="line"/>
      <point x="203" y="23" type="line"/>
    </contour>
    <contour>
      <point x="491" y="-18" type="line"/>
      <point x="449" y="44" type="line"/>
      <point x="628" y="774" type="line" smooth="yes"/>
      <point x="649" y="859"/>
      <point x="612" y="945"/>
      <point x="551" y="945" type="qcurve" smooth="yes"/>
      <point x="490" y="945"/>
      <point x="333" y="782"/>
      <point x="224" y="593" type="qcurve"/>
      <point x="209" y="668" type="line"/>
      <point x="336" y="884"/>
      <point x="516" y="1061"/>
      <point x="623" y="1061" type="qcurve" smooth="yes"/>
      <point x="706" y="1061"/>
      <point x="758" y="905"/>
      <point x="718" y="730" type="qcurve" smooth="yes"/>
      <point x="576" y="124" type="line"/>
      <point x="632" y="56" type="line"/>
    </contour>
    <contour>
      <point x="945" y="-17" type="line"/>
      <point x="904" y="66" type="line"/>
      <point x="1071" y="774" type="line" smooth="yes"/>
      <point x="1090" y="854"/>
      <point x="1055" y="946"/>
      <point x="995" y="946" type="qcurve" smooth="yes"/>
      <point x="929" y="946"/>
      <point x="774" y="784"/>
      <point x="665" y="593" type="qcurve"/>
      <point x="650" y="667" type="line"/>
      <point x="778" y="885"/>
      <point x="963" y="1061"/>
      <point x="1071" y="1061" type="qcurve" smooth="yes"/>
      <point x="1152" y="1061"/>
      <point x="1202" y="907"/>
      <point x="1160" y="728" type="qcurve" smooth="yes"/>
      <point x="1017" y="124" type="line"/>
      <point x="1166" y="124" type="line"/>
      <point x="1164" y="43" type="line"/>
    </contour>
  </outline>
</glyph>
<glyph name="n" format="2">
  <advance width="884"/>
  <unicode hex="006E"/>
  <outline>
    <contour>
      <point x="43" y="-23" type="line"/>
      <point x="14" y="38" type="line"/>
      <point x="135" y="584" type="line"/>
      <point x="197" y="921" type="line"/>
      <point x="31" y="921" type="line"/>
      <point x="49" y="1018" type="line"/>
      <point x="284" y="1050" type="line"/>
      <point x="316" y="1050" type="line"/>
      <point x="264" y="757" type="line"/>
      <point x="247" y="639" type="line"/>
      <point x="145" y="127" type="line"/>
      <point x="197" y="24" type="line"/>
    </contour>
    <contour>
      <point x="522" y="-17" type="line"/>
      <point x="481" y="66" type="line"/>
      <point x="648" y="774" type="line" smooth="yes"/>
      <point x="667" y="854"/>
      <point x="622" y="946"/>
      <point x="562" y="946" type="qcurve" smooth="yes"/>
      <point x="496" y="946"/>
      <point x="331" y="784"/>
      <point x="222" y="593" type="qcurve"/>
      <point x="207" y="667" type="line"/>
      <point x="335" y="885"/>
      <point x="530" y="1061"/>
      <point x="638" y="1061" type="qcurve" smooth="yes"/>
      <point x="719" y="1061"/>
      <point x="779" y="907"/>
      <point x="737" y="728" type="qcurve" smooth="yes"/>
      <point x="595" y="124" type="line"/>
      <point x="743" y="124" type="line"/>
      <point x="741" y="43" type="line"/>
    </contour>
  </outline>
</glyph>
<glyph name="o" format="2">
  <advance width="828"/>
  <unicode hex="006F"/>
  <outline>
    <contour>
      <point x="32" y="597" type="qcurve" smooth="yes"/>
      <point x="89" y="821"/>
      <point x="356" y="1077"/>
      <point x="509" y="1062" type="qcurve" smooth="yes"/>
      <point x="672" y="1046"/>
      <point x="787" y="712"/>
      <point x="726" y="474" type="qcurve" smooth="yes"/>
      <point x="663" y="227"/>
      <point x="393" y="-34"/>
      <point x="244" y="-18" type="qcurve" smooth="yes"/>
      <point x="80" y="0"/>
      <point x="-35" y="335"/>
    </contour>
    <contour>
      <point x="141" y="575" type="qcurve" smooth="yes"/>
      <point x="80" y="353"/>
      <point x="153" y="83"/>
      <point x="259" y="69" type="qcurve" smooth="yes"/>
      <point x="375" y="52"/>
      <point x="566" y="300"/>
      <point x="613" y="486" type="qcurve" smooth="yes"/>
      <point x="664" y="693"/>
      <point x="599" y="960"/>
      <point x="489" y="972" type="qcurve" smooth="yes"/>
      <point x="381" y="984"/>
      <point x="197" y="779"/>
    </contour>
  </outline>
</glyph>
<glyph name="p" format="2">
  <advance width="871"/>
  <unicode hex="0070"/>
  <outline>
    <contour>
      <point x="-95" y="-398" type="line"/>
      <point x="117" y="487" type="line"/>
      <point x="179" y="775" type="line"/>
      <point x="125" y="1002" type="line"/>
      <point x="172" y="1050" type="line"/>
      <point x="240" y="1050" type="line"/>
      <point x="275" y="814" type="line"/>
      <point x="336" y="920"/>
      <point x="509" y="1063"/>
      <point x="602" y="1063" type="qcurve" smooth="yes"/>
      <point x="702" y="1063"/>
      <point x="813" y="915"/>
      <point x="799" y="711" type="qcurve" smooth="yes"/>
      <point x="781" y="442"/>
      <point x="445" y="-6"/>
      <point x="254" y="-6" type="qcurve" smooth="yes"/>
      <point x="212" y="-6"/>
      <point x="136" y="13"/>
      <point x="114" y="28" type="qcurve"/>
      <point x="28" y="-349" type="line"/>
      <point x="173" y="-362" type="line"/>
      <point x="152" y="-443" type="line"/>
      <point x="-31" y="-477" type="line"/>
    </contour>
    <contour>
      <point x="152" y="196" type="line" smooth="yes"/>
      <point x="133" y="114"/>
      <point x="190" y="72"/>
      <point x="253" y="72" type="qcurve" smooth="yes"/>
      <point x="401" y="72"/>
      <point x="665" y="464"/>
      <point x="682" y="707" type="qcurve" smooth="yes"/>
      <point x="692" y="861"/>
      <point x="640" y="970"/>
      <point x="576" y="970" type="qcurve" smooth="yes"/>
      <point x="500" y="970"/>
      <point x="315" y="778"/>
      <point x="269" y="698" type="qcurve"/>
      <point x="215" y="473" type="line"/>
    </contour>
  </outline>
</glyph>
<glyph name="q" format="2">
  <advance width="866"/>
  <unicode hex="0071"/>
  <outline>
    <contour>
      <point x="1" y="276" type="qcurve" smooth="yes"/>
      <point x="11" y="538"/>
      <point x="351" y="1057"/>
      <point x="530" y="1057" type="qcurve" smooth="yes"/>
      <point x="600" y="1057"/>
      <point x="674" y="1006"/>
      <point x="692" y="974" type="qcurve"/>
      <point x="748" y="1068" type="line"/>
      <point x="804" y="1068" type="line"/>
      <point x="746" y="820" type="line"/>
      <point x="680" y="508" type="line"/>
      <point x="510" y="-335" type="line"/>
      <point x="642" y="-366" type="line"/>
      <point x="618" y="-451" type="line"/>
      <point x="489" y="-480" type="line"/>
      <point x="391" y="-394" type="line"/>
      <point x="513" y="175" type="line"/>
      <point x="507" y="180" type="line"/>
      <point x="464" y="99"/>
      <point x="309" y="-14"/>
      <point x="201" y="-14" type="qcurve" smooth="yes"/>
      <point x="119" y="-14"/>
      <point x="-5" y="117"/>
    </contour>
    <contour>
      <point x="112" y="274" type="qcurve" smooth="yes"/>
      <point x="105" y="165"/>
      <point x="179" y="80"/>
      <point x="237" y="80" type="qcurve" smooth="yes"/>
      <point x="338" y="80"/>
      <point x="519" y="250"/>
      <point x="557" y="419" type="qcurve" smooth="yes"/>
      <point x="658" y="872" type="line"/>
      <point x="653" y="910"/>
      <point x="578" y="955"/>
      <point x="525" y="955" type="qcurve" smooth="yes"/>
      <point x="395" y="955"/>
      <point x="126" y="511"/>
    </contour>
  </outline>
</glyph>
<glyph name="r" format="2">
  <advance width="686"/>
  <unicode hex="0072"/>
  <outline>
    <contour>
      <point x="82" y="-18" type="line"/>
      <point x="15" y="62" type="line"/>
      <point x="124" y="528" type="line"/>
      <point x="196" y="922" type="line"/>
      <point x="27" y="920" type="line"/>
      <point x="48" y="1016" type="line"/>
      <point x="234" y="1049" type="line"/>
      <point x="297" y="1049" type="line"/>
      <point x="305" y="950" type="line"/>
      <point x="226" y="538" type="line"/>
      <point x="140" y="123" type="line"/>
      <point x="292" y="123" type="line"/>
      <point x="287" y="45" type="line"/>
    </contour>
    <contour>
      <point x="533" y="746" type="line"/>
      <point x="533" y="930" type="line"/>
      <point x="462" y="930"/>
      <point x="294" y="750"/>
      <point x="225" y="644" type="qcurve"/>
      <point x="224" y="718" type="line"/>
      <point x="287" y="822"/>
      <point x="484" y="1062"/>
      <point x="584" y="1062" type="qcurve" smooth="yes"/>
      <point x="634" y="1062"/>
      <point x="671" y="1028"/>
      <point x="671" y="978" type="qcurve" smooth="yes"/>
      <point x="671" y="876"/>
      <point x="608" y="746"/>
      <point x="568" y="746" type="qcurve" smooth="yes"/>
    </contour>
  </outline>
</glyph>
<glyph name="s" format="2">
  <advance width="672"/>
  <unicode hex="0073"/>
  <outline>
    <contour>
      <point x="-62.0" y="173.0" type="qcurve" smooth="yes"/>
      <point x="-60.0" y="248.0"/>
      <point x="-8" y="304"/>
      <point x="23.0" y="304.0" type="qcurve" smooth="yes"/>
      <point x="69.0" y="304.0" type="line"/>
      <point x="63.0" y="141.0" type="line" smooth="yes"/>
      <point x="61" y="96"/>
      <point x="136.0" y="38.0"/>
      <point x="208.0" y="38.0" type="qcurve" smooth="yes"/>
      <point x="330" y="38"/>
      <point x="453.0" y="152.0"/>
      <point x="457.0" y="241.0" type="qcurve" smooth="yes"/>
      <point x="459.0" y="299.0"/>
      <point x="405.0" y="384.0"/>
      <point x="272.0" y="480.0" type="qcurve" smooth="yes"/>
      <point x="151.0" y="572.0"/>
      <point x="74.0" y="691.0"/>
      <point x="76.0" y="802.0" type="qcurve" smooth="yes"/>
      <point x="80.0" y="931.0"/>
      <point x="253" y="1063.0"/>
      <point x="381.0" y="1063.0" type="qcurve" smooth="yes"/>
      <point x="501" y="1063"/>
      <point x="630.0" y="963.0"/>
      <point x="628.0" y="890.0" type="qcurve" smooth="yes"/>
      <point x="626" y="818"/>
      <point x="577" y="733"/>
      <point x="538.0" y="733.0" type="qcurve" smooth="yes"/>
      <point x="508.0" y="733.0" type="line"/>
      <point x="508.0" y="882.0" type="line" smooth="yes"/>
      <point x="508" y="925"/>
      <point x="422.0" y="984.0"/>
      <point x="353.0" y="983.0" type="qcurve"/>
      <point x="284.0" y="984.0"/>
      <point x="189" y="903"/>
      <point x="186.0" y="823.0" type="qcurve" smooth="yes"/>
      <point x="184.0" y="764.0"/>
      <point x="251.0" y="667.0"/>
      <point x="354.0" y="593.0" type="qcurve" smooth="yes"/>
      <point x="472.0" y="510.0"/>
      <point x="563.0" y="365.0"/>
      <point x="563.0" y="264.0" type="qcurve" smooth="yes"/>
      <point x="563.0" y="130"/>
      <point x="366.0" y="-29.0"/>
      <point x="201.0" y="-29.0" type="qcurve" smooth="yes"/>
      <point x="71.0" y="-29.0"/>
      <point x="-64" y="81"/>
    </contour>
  </outline>
</glyph>
<glyph name="t" format="2">
  <advance width="480"/>
  <unicode hex="0074"/>
  <outline>
    <contour>
      <point x="72" y="-15" type="line"/>
      <point x="8" y="63" type="line"/>
      <point x="109" y="538" type="line"/>
      <point x="177" y="918" type="line"/>
      <point x="46" y="930" type="line"/>
      <point x="59" y="1006" type="line"/>
      <point x="196" y="1029"/>
      <point x="247" y="1164"/>
      <point x="282" y="1345" type="qcurve"/>
      <point x="340" y="1345" type="line"/>
      <point x="357" y="1294" type="line"/>
      <point x="206" y="510" type="line"/>
      <point x="131" y="121" type="line"/>
      <point x="326" y="127" type="line"/>
      <point x="326" y="48" type="line"/>
    </contour>
    <contour>
      <point x="256" y="924" type="line"/>
      <point x="289" y="1028" type="line"/>
      <point x="504" y="1028" type="line"/>
      <point x="481" y="950" type="line"/>
    </contour>
  </outline>
</glyph>
<glyph name="u" format="2">
  <advance width="880"/>
  <unicode hex="0075"/>
  <outline>
    <contour>
      <point x="561.0" y="-13.0" type="line"/>
      <point x="501.0" y="83.0" type="line"/>
      <point x="513.0" y="262.0" type="line"/>
      <point x="665.0" y="909.0" type="line"/>
      <point x="608.0" y="1026.0" type="line"/>
      <point x="748.0" y="1075.0" type="line"/>
      <point x="791.0" y="984.0" type="line"/>
      <point x="624.0" y="296.0" type="line"/>
      <point x="587.0" y="125.0" type="line"/>
      <point x="739.0" y="125.0" type="line"/>
      <point x="734.0" y="43.0" type="line"/>
    </contour>
    <contour>
      <point x="58.0" y="276.0" type="qcurve" smooth="yes"/>
      <point x="191.0" y="924.0" type="line"/>
      <point x="19.0" y="921.0" type="line"/>
      <point x="34.0" y="1017.0" type="line"/>
      <point x="215.0" y="1049.0" type="line"/>
      <point x="284.0" y="1049.0" type="line"/>
      <point x="306.0" y="970.0" type="line"/>
      <point x="157.0" y="253.0" type="line" smooth="yes"/>
      <point x="139" y="164"/>
      <point x="183" y="76"/>
      <point x="249" y="76.0" type="qcurve" smooth="yes"/>
      <point x="328" y="76"/>
      <point x="474.0" y="182.0"/>
      <point x="516.0" y="260.0" type="qcurve"/>
      <point x="559.0" y="243.0" type="line"/>
      <point x="522.0" y="154.0"/>
      <point x="349" y="-14"/>
      <point x="223" y="-14.0" type="qcurve" smooth="yes"/>
      <point x="116" y="-14"/>
      <point x="28.0" y="123.0"/>
    </contour>
  </outline>
</glyph>
<glyph name="v" format="2">
  <advance width="763"/>
  <unicode hex="0076"/>
  <outline>
    <contour>
      <point x="-3" y="919" type="line"/>
      <point x="0" y="1013" type="line"/>
      <point x="144" y="1047" type="line"/>
      <point x="211" y="1047" type="line"/>
      <point x="252" y="593" type="line"/>
      <point x="296" y="148" type="line"/>
      <point x="439" y="374"/>
      <point x="642" y="750"/>
      <point x="642" y="837" type="qcurve" smooth="yes"/>
      <point x="642" y="897"/>
      <point x="562" y="971"/>
      <point x="564" y="1008" type="qcurve" smooth="yes"/>
      <point x="565" y="1041"/>
      <point x="605" y="1075"/>
      <point x="635" y="1075" type="qcurve" smooth="yes"/>
      <point x="685" y="1075"/>
      <point x="757" y="1004"/>
      <point x="757" y="933" type="qcurve" smooth="yes"/>
      <point x="757" y="791"/>
      <point x="517" y="359"/>
      <point x="261" y="-23" type="qcurve"/>
      <point x="210" y="-23" type="line"/>
      <point x="156" y="570" type="line"/>
      <point x="121" y="919" type="line"/>
    </contour>
  </outline>
</glyph>
<glyph name="w" format="2">
  <advance width="1105"/>
  <unicode hex="0077"/>
  <outline>
    <contour>
      <point x="0" y="920" type="line"/>
      <point x="0" y="1011" type="line"/>
      <point x="145" y="1047" type="line"/>
      <point x="211" y="1047" type="line"/>
      <point x="251" y="626" type="line"/>
      <point x="292" y="135" type="line"/>
      <point x="370" y="271"/>
      <point x="509" y="560"/>
      <point x="559" y="661" type="qcurve"/>
      <point x="567" y="551" type="line"/>
      <point x="520" y="450"/>
      <point x="356" y="132"/>
      <point x="260" y="-24" type="qcurve"/>
      <point x="211" y="-24" type="line"/>
      <point x="157" y="549" type="line"/>
      <point x="123" y="920" type="line"/>
    </contour>
    <contour>
      <point x="449" y="1009" type="line"/>
      <point x="559" y="1049" type="line"/>
      <point x="594" y="1049" type="line"/>
      <point x="583" y="923" type="line"/>
      <point x="670" y="132" type="line"/>
      <point x="763" y="289"/>
      <point x="985" y="751"/>
      <point x="985" y="836" type="qcurve" smooth="yes"/>
      <point x="985" y="900"/>
      <point x="909" y="969"/>
      <point x="909" y="1007" type="qcurve" smooth="yes"/>
      <point x="909" y="1039"/>
      <point x="948" y="1076"/>
      <point x="984" y="1076" type="qcurve" smooth="yes"/>
      <point x="1032" y="1076"/>
      <point x="1100" y="1005"/>
      <point x="1100" y="932" type="qcurve" smooth="yes"/>
      <point x="1100" y="793"/>
      <point x="753" y="159"/>
      <point x="638" y="-26" type="qcurve"/>
      <point x="577" y="-26" type="line"/>
      <point x="528" y="554" type="line"/>
      <point x="477" y="953" type="line"/>
      <point x="468" y="974" type="line"/>
    </contour>
  </outline>
</glyph>
<glyph name="x" format="2">
  <advance width="795"/>
  <unicode hex="0078"/>
  <outline>
    <contour>
      <point x="45" y="919" type="line"/>
      <point x="48" y="1013" type="line"/>
      <point x="210" y="1052" type="line"/>
      <point x="260" y="1036" type="line"/>
      <point x="382" y="617" type="line"/>
      <point x="525" y="124" type="line"/>
      <point x="678" y="124" type="line"/>
      <point x="692" y="58" type="line"/>
      <point x="517" y="-17" type="line"/>
      <point x="447" y="29" type="line"/>
      <point x="319" y="506" type="line"/>
      <point x="184" y="919" type="line"/>
    </contour>
    <contour>
      <point x="-167" y="48" type="line"/>
      <point x="-167" y="124" type="line"/>
      <point x="-10" y="124" type="line" smooth="yes"/>
      <point x="43" y="124"/>
      <point x="229" y="388"/>
      <point x="335" y="574" type="qcurve" smooth="yes"/>
      <point x="442" y="762"/>
      <point x="651" y="1069"/>
      <point x="721" y="1069" type="qcurve" smooth="yes"/>
      <point x="767" y="1069"/>
      <point x="837" y="1013"/>
      <point x="837" y="959" type="qcurve" smooth="yes"/>
      <point x="837" y="906"/>
      <point x="773" y="834"/>
      <point x="726" y="834" type="qcurve"/>
      <point x="694" y="876" type="line"/>
      <point x="694" y="897" type="line"/>
      <point x="694" y="921"/>
      <point x="679" y="936"/>
      <point x="664" y="936" type="qcurve" smooth="yes"/>
      <point x="632" y="936"/>
      <point x="463" y="679"/>
      <point x="358" y="497" type="qcurve" smooth="yes"/>
      <point x="247" y="305"/>
      <point x="37" y="-12"/>
      <point x="-65" y="-12" type="qcurve"/>
    </contour>
  </outline>
</glyph>
<glyph name="y" format="2">
  <advance width="764"/>
  <unicode hex="0079"/>
  <outline>
    <contour>
      <point x="-227" y="-426" type="line"/>
      <point x="-212" y="-362" type="line"/>
      <point x="-147" y="-360" type="line" smooth="yes"/>
      <point x="-60" y="-357"/>
      <point x="92" y="-166"/>
      <point x="152" y="-74" type="qcurve" smooth="yes"/>
      <point x="210" y="15" type="line"/>
      <point x="210" y="16" type="line"/>
      <point x="181" y="296"/>
      <point x="141" y="740"/>
      <point x="120" y="918" type="qcurve"/>
      <point x="-2" y="918" type="line"/>
      <point x="0" y="1013" type="line"/>
      <point x="146" y="1048" type="line"/>
      <point x="209" y="1048" type="line"/>
      <point x="218" y="956" type="line"/>
      <point x="298" y="149" type="line"/>
      <point x="437" y="373"/>
      <point x="643" y="750"/>
      <point x="643" y="838" type="qcurve" smooth="yes"/>
      <point x="643" y="895"/>
      <point x="565" y="970"/>
      <point x="565" y="1009" type="qcurve" smooth="yes"/>
      <point x="565" y="1040"/>
      <point x="604" y="1075"/>
      <point x="637" y="1075" type="qcurve" smooth="yes"/>
      <point x="684" y="1075"/>
      <point x="758" y="1003"/>
      <point x="758" y="932" type="qcurve" smooth="yes"/>
      <point x="758" y="789"/>
      <point x="506" y="362"/>
      <point x="295" y="20" type="qcurve" smooth="yes"/>
      <point x="274" y="-14" type="line" smooth="yes"/>
      <point x="159" y="-200"/>
      <point x="-39" y="-477"/>
      <point x="-142" y="-477" type="qcurve"/>
    </contour>
  </outline>
</glyph>
<glyph name="z" format="2">
  <advance width="678"/>
  <unicode hex="007A"/>
  <outline>
    <contour>
      <point x="-38" y="-6" type="line"/>
      <point x="-84" y="46" type="line"/>
      <point x="-27" y="110"/>
      <point x="182" y="418"/>
      <point x="288" y="572" type="qcurve" smooth="yes"/>
      <point x="375" y="697"/>
      <point x="514" y="900"/>
      <point x="542" y="938" type="qcurve"/>
      <point x="221" y="941" type="line"/>
      <point x="139" y="778" type="line"/>
      <point x="73" y="778" type="line"/>
      <point x="128" y="1020" type="line"/>
      <point x="165" y="1050" type="line"/>
      <point x="670" y="1050" type="line"/>
      <point x="679" y="999" type="line"/>
      <point x="639" y="942"/>
      <point x="460" y="664"/>
      <point x="364" y="522" type="qcurve" smooth="yes"/>
      <point x="276" y="392"/>
      <point x="113" y="178"/>
      <point x="92" y="151" type="qcurve"/>
      <point x="449" y="89" type="line"/>
      <point x="550" y="281" type="line"/>
      <point x="611" y="262" type="line"/>
      <point x="523" y="-1" type="line"/>
      <point x="492" y="-20" type="line"/>
      <point x="29" y="60" type="line"/>
    </contour>
  </outline>
</glyph>
<glyph name="braceleft" format="2">
  <advance width="566"/>
  <unicode hex="007B"/>
  <outline>
    <contour>
      <point x="44.0" y="497.0" type="line"/>
      <point x="66.0" y="588.0" type="line"/>
      <point x="169.0" y="602.0" type="line" smooth="yes"/>
      <point x="226.0" y="610.0"/>
      <point x="283.0" y="660.0"/>
      <point x="293.0" y="716.0" type="qcurve" smooth="yes"/>
      <point x="316.0" y="834.0"/>
      <point x="229.0" y="1096.0"/>
      <point x="236.0" y="1194.0" type="qcurve" smooth="yes"/>
      <point x="249.0" y="1352.0"/>
      <point x="448.0" y="1510.0"/>
      <point x="605.0" y="1510.0" type="qcurve" smooth="yes"/>
      <point x="596.0" y="1510.0"/>
      <point x="650.0" y="1506.0"/>
      <point x="663.0" y="1500.0" type="qcurve"/>
      <point x="648.0" y="1409.0" type="line"/>
      <point x="627.0" y="1410.0"/>
      <point x="619.0" y="1411.0"/>
      <point x="590.0" y="1411.0" type="qcurve" smooth="yes"/>
      <point x="501.0" y="1411.0"/>
      <point x="361.0" y="1316.0"/>
      <point x="356.0" y="1216.0" type="qcurve" smooth="yes"/>
      <point x="346.0" y="1092.0"/>
      <point x="423" y="786"/>
      <point x="406.0" y="698.0" type="qcurve" smooth="yes"/>
      <point x="397.0" y="651.0"/>
      <point x="332.0" y="568.0"/>
      <point x="266.0" y="555.0" type="qcurve"/>
      <point x="313.0" y="538.0"/>
      <point x="360.0" y="434.0"/>
      <point x="346.0" y="364.0" type="qcurve" smooth="yes"/>
      <point x="329.0" y="273.0"/>
      <point x="64.0" y="-59.0"/>
      <point x="40.0" y="-180.0" type="qcurve" smooth="yes"/>
      <point x="20.0" y="-284.0"/>
      <point x="112.0" y="-393.0"/>
      <point x="199.0" y="-393.0" type="qcurve" smooth="yes"/>
      <point x="248.0" y="-393.0"/>
      <point x="261.0" y="-393.0"/>
      <point x="288.0" y="-391.0" type="qcurve"/>
      <point x="272.0" y="-484.0" type="line"/>
      <point x="249.0" y="-492.0"/>
      <point x="206.0" y="-495.0"/>
      <point x="198.0" y="-495.0" type="qcurve" smooth="yes"/>
      <point x="42.0" y="-495.0"/>
      <point x="-98.0" y="-317.0"/>
      <point x="-72" y="-185" type="qcurve" smooth="yes"/>
      <point x="-44.0" y="-40.0"/>
      <point x="230.0" y="316.0"/>
      <point x="245.0" y="434.0" type="qcurve"/>
      <point x="243.0" y="492.0" type="line"/>
    </contour>
  </outline>
</glyph>
<glyph name="bar" format="2">
  <advance width="550"/>
  <unicode hex="007C"/>
  <outline>
    <contour>
      <point x="-11.0" y="-540.0" type="line"/>
      <point x="95.0" y="-58.0" type="line"/>
      <point x="149.0" y="250.0" type="line"/>
      <point x="259.0" y="830.0" type="line"/>
      <point x="327.0" y="1138.0" type="line"/>
      <point x="384.0" y="1500.0" type="line"/>
      <point x="517.0" y="1550.0" type="line"/>
      <point x="425.0" y="1138.0" type="line"/>
      <point x="371.0" y="830.0" type="line"/>
      <point x="261.0" y="250.0" type="line"/>
      <point x="193.0" y="-58.0" type="line"/>
      <point x="120.0" y="-495.0" type="line"/>
    </contour>
  </outline>
</glyph>
<glyph name="braceright" format="2">
  <advance width="566"/>
  <unicode hex="007D"/>
  <outline>
    <contour>
      <point x="-218.0" y="-486.0" type="qcurve"/>
      <point x="-201.0" y="-393.0" type="line"/>
      <point x="-181.0" y="-394.0"/>
      <point x="-163.0" y="-395.0"/>
      <point x="-134.0" y="-395.0" type="qcurve" smooth="yes"/>
      <point x="-40.0" y="-395.0"/>
      <point x="71.0" y="-292.0"/>
      <point x="90.0" y="-182.0" type="qcurve" smooth="yes"/>
      <point x="108.0" y="-80.0"/>
      <point x="74.0" y="280.0"/>
      <point x="89.0" y="369.0" type="qcurve" smooth="yes"/>
      <point x="110.0" y="489.0"/>
      <point x="214.0" y="523.0"/>
      <point x="265.0" y="523.0" type="qcurve"/>
      <point x="178.0" y="560.0"/>
      <point x="145.0" y="658.0"/>
      <point x="154.0" y="703.0" type="qcurve" smooth="yes"/>
      <point x="172.0" y="794.0"/>
      <point x="366.0" y="1093.0"/>
      <point x="387.0" y="1194.0" type="qcurve" smooth="yes"/>
      <point x="406.0" y="1298.0"/>
      <point x="335.0" y="1409.0"/>
      <point x="243.0" y="1409.0" type="qcurve" smooth="yes"/>
      <point x="194.0" y="1409.0"/>
      <point x="196.0" y="1409.0"/>
      <point x="168.0" y="1407.0" type="qcurve"/>
      <point x="183.0" y="1498.0" type="line"/>
      <point x="207.0" y="1503.0"/>
      <point x="219.0" y="1510.0"/>
      <point x="247.0" y="1510.0" type="qcurve" smooth="yes"/>
      <point x="403.0" y="1510.0"/>
      <point x="533.0" y="1341.0"/>
      <point x="502.0" y="1182.0" type="qcurve" smooth="yes"/>
      <point x="479.0" y="1064.0"/>
      <point x="310.0" y="829.0"/>
      <point x="287.0" y="729.0" type="qcurve"/>
      <point x="250.0" y="609.0" type="line"/>
      <point x="467.0" y="589.0" type="line"/>
      <point x="445.0" y="498.0" type="line"/>
      <point x="357.0" y="491.0" type="line" smooth="yes"/>
      <point x="312.0" y="487.0"/>
      <point x="233.0" y="451.0"/>
      <point x="211.0" y="377.0" type="qcurve" smooth="yes"/>
      <point x="165.0" y="217.0"/>
      <point x="228.0" y="-63.0"/>
      <point x="212.0" y="-170.0" type="qcurve" smooth="yes"/>
      <point x="189.0" y="-328.0"/>
      <point x="7.0" y="-495.0"/>
      <point x="-150.0" y="-495.0" type="qcurve" smooth="yes"/>
      <point x="-171.0" y="-495.0"/>
      <point x="-199.0" y="-491.0"/>
    </contour>
  </outline>
</glyph>
<glyph name="asciitilde" format="2">
  <advance width="678"/>
  <unicode hex="007E"/>
  <outline>
    <contour>
      <point x="24.0" y="624.0" type="line"/>
      <point x="69.0" y="698.0"/>
      <point x="186.0" y="783.0"/>
      <point x="242.0" y="784.0" type="qcurve"/>
      <point x="497.0" y="675.0" type="line"/>
      <point x="539.0" y="675.0"/>
      <point x="612.0" y="724.0"/>
      <point x="643.0" y="802.0" type="qcurve"/>
      <point x="691.0" y="755.0" type="line"/>
      <point x="659.0" y="656.0"/>
      <point x="538.0" y="555.0"/>
      <point x="482.0" y="554.0" type="qcurve"/>
      <point x="228.0" y="661.0" type="line"/>
      <point x="185.0" y="661.0"/>
      <point x="102.0" y="620.0"/>
      <point x="58.0" y="560.0" type="qcurve"/>
    </contour>
  </outline>
</glyph>
<glyph name="ordfeminine" format="2">
  <advance width="753"/>
  <unicode hex="00AA"/>
  <outline>
    <contour>
      <point x="233.0" y="839.0" type="qcurve" smooth="yes"/>
      <point x="245.0" y="1091.0"/>
      <point x="501.0" y="1466.0"/>
      <point x="646.0" y="1466.0" type="qcurve" smooth="yes"/>
      <point x="663.0" y="1466.0"/>
      <point x="727.0" y="1455.0"/>
      <point x="739.0" y="1447.0" type="qcurve"/>
      <point x="772.0" y="1491.0" type="line"/>
      <point x="807.0" y="1491.0" type="line"/>
      <point x="798.0" y="1340.0" type="line"/>
      <point x="710.0" y="947.0" type="line"/>
      <point x="685.0" y="832.0" type="line"/>
      <point x="727.0" y="696.0" type="line"/>
      <point x="639.0" y="628.0" type="line"/>
      <point x="598.0" y="747.0" type="line"/>
      <point x="440.0" y="633.0" type="line"/>
      <point x="365.0" y="633.0"/>
      <point x="229.0" y="748.0"/>
    </contour>
    <contour>
      <point x="334.0" y="934.0" type="qcurve" smooth="yes"/>
      <point x="330.0" y="850.0"/>
      <point x="375.0" y="781.0"/>
      <point x="414.0" y="781.0" type="qcurve" smooth="yes"/>
      <point x="456.0" y="781.0"/>
      <point x="598.0" y="890.0"/>
      <point x="632.0" y="1019.0" type="qcurve" smooth="yes"/>
      <point x="705.0" y="1335.0" type="line"/>
      <point x="705.0" y="1365.0"/>
      <point x="642.0" y="1383.0"/>
      <point x="621.0" y="1383.0" type="qcurve" smooth="yes"/>
      <point x="519.0" y="1383.0"/>
      <point x="344.0" y="1074.0"/>
    </contour>
  </outline>
</glyph>
<glyph name="registered" format="2">
  <advance width="1771"/>
  <unicode hex="00AE"/>
  <outline>
    <contour>
      <point x="52.0" y="685.0" type="qcurve" smooth="yes"/>
      <point x="52.0" y="1071.0"/>
      <point x="485.0" y="1570.0"/>
      <point x="848.0" y="1570.0" type="qcurve" smooth="yes"/>
      <point x="1210.0" y="1570.0"/>
      <point x="1631.0" y="1107.0"/>
      <point x="1631.0" y="706.0" type="qcurve" smooth="yes"/>
      <point x="1631.0" y="268.0"/>
      <point x="1216.0" y="-243.0"/>
      <point x="856.0" y="-243.0" type="qcurve" smooth="yes"/>
      <point x="491.0" y="-243.0"/>
      <point x="52.0" y="256.0"/>
    </contour>
    <contour>
      <point x="169.0" y="682.0" type="qcurve" smooth="yes"/>
      <point x="169.0" y="292.0"/>
      <point x="533.0" y="-103.0"/>
      <point x="857.0" y="-103.0" type="qcurve" smooth="yes"/>
      <point x="1172.0" y="-103.0"/>
      <point x="1514.0" y="300.0"/>
      <point x="1514.0" y="700.0" type="qcurve" smooth="yes"/>
      <point x="1514.0" y="1051.0"/>
      <point x="1188.0" y="1431.0"/>
      <point x="850.0" y="1431.0" type="qcurve" smooth="yes"/>
      <point x="527.0" y="1431.0"/>
      <point x="169.0" y="1031.0"/>
    </contour>
    <contour>
      <point x="531.0" y="176.0" type="line"/>
      <point x="533.0" y="226.0" type="line"/>
      <point x="623.0" y="250.0" type="line"/>
      <point x="632.0" y="723.0" type="line"/>
      <point x="623.0" y="1133.0" type="line"/>
      <point x="525.0" y="1156.0" type="line"/>
      <point x="525.0" y="1209.0" type="line"/>
      <point x="877.0" y="1209.0" type="line" smooth="yes"/>
      <point x="1011.0" y="1209.0"/>
      <point x="1131.0" y="1062.0"/>
      <point x="1131.0" y="948.0" type="qcurve" smooth="yes"/>
      <point x="1131.0" y="821.0"/>
      <point x="992.0" y="664.0"/>
      <point x="885.0" y="664.0" type="qcurve" smooth="yes"/>
      <point x="842.0" y="664.0"/>
      <point x="703.0" y="668.0"/>
      <point x="683.0" y="668.0" type="qcurve"/>
      <point x="683.0" y="723.0" type="line"/>
      <point x="848.0" y="723.0" type="line" smooth="yes"/>
      <point x="949.0" y="723.0"/>
      <point x="1049.0" y="838.0"/>
      <point x="1049.0" y="949.0" type="qcurve" smooth="yes"/>
      <point x="1049.0" y="1029.0"/>
      <point x="963.0" y="1148.0"/>
      <point x="843.0" y="1148.0" type="qcurve" smooth="yes"/>
      <point x="732.0" y="1148.0" type="line"/>
      <point x="714.0" y="1135.0" type="line"/>
      <point x="703.0" y="723.0" type="line"/>
      <point x="712.0" y="250.0" type="line"/>
      <point x="844.0" y="226.0" type="line"/>
      <point x="844.0" y="176.0" type="line"/>
    </contour>
    <contour>
      <point x="866.0" y="680.0" type="line"/>
      <point x="961.0" y="688.0" type="line"/>
      <point x="1128.0" y="361.0" type="line" smooth="yes"/>
      <point x="1182.0" y="257.0"/>
      <point x="1225.0" y="226.0"/>
      <point x="1260.0" y="226.0" type="qcurve"/>
      <point x="1260.0" y="176.0" type="line"/>
      <point x="1161.0" y="176.0" type="line"/>
      <point x="1115.0" y="190.0" type="line"/>
    </contour>
  </outline>
</glyph>
<glyph name="florin" format="2">
  <advance width="568"/>
  <unicode hex="0192"/>
  <outline>
    <contour>
      <point x="273.0" y="-75.0" type="line" smooth="yes"/>
      <point x="253.0" y="-183.0"/>
      <point x="139.0" y="-307.0"/>
      <point x="39.0" y="-307.0" type="qcurve" smooth="yes"/>
      <point x="16.0" y="-307.0"/>
      <point x="-45.0" y="-301.0"/>
      <point x="-65.0" y="-292.0" type="qcurve" smooth="yes"/>
      <point x="-103.0" y="-278.0" type="line"/>
      <point x="-99.0" y="-161.0" type="line"/>
      <point x="-58.0" y="-176.0" type="line" smooth="yes"/>
      <point x="-50.0" y="-179.0"/>
      <point x="7.0" y="-187.0"/>
      <point x="23.0" y="-187.0" type="qcurve" smooth="yes"/>
      <point x="92.0" y="-187.0"/>
      <point x="149.0" y="-104.0"/>
      <point x="161.0" y="-32.0" type="qcurve" smooth="yes"/>
      <point x="313.0" y="847.0" type="line"/>
      <point x="198.0" y="857.0" type="line"/>
      <point x="201.0" y="956.0" type="line"/>
      <point x="338.0" y="974.0" type="line"/>
      <point x="407.0" y="1304.0" type="line" smooth="yes"/>
      <point x="428.0" y="1402.0"/>
      <point x="549.0" y="1518.0"/>
      <point x="649.0" y="1518.0" type="qcurve" smooth="yes"/>
      <point x="666.0" y="1518.0"/>
      <point x="709.0" y="1510.0"/>
      <point x="721.0" y="1510.0" type="qcurve" smooth="yes"/>
      <point x="755.0" y="1506.0" type="line"/>
      <point x="732.0" y="1391.0" type="line"/>
      <point x="688.0" y="1400.0" type="line" smooth="yes"/>
      <point x="680.0" y="1402.0"/>
      <point x="641.0" y="1407.0"/>
      <point x="618.0" y="1407.0" type="qcurve" smooth="yes"/>
      <point x="573.0" y="1407.0"/>
      <point x="517.0" y="1330.0"/>
      <point x="506.0" y="1258.0" type="qcurve" smooth="yes"/>
      <point x="463.0" y="975.0" type="line"/>
      <point x="631.0" y="975.0" type="line"/>
      <point x="619.0" y="868.0" type="line"/>
      <point x="447.0" y="857.0" type="line"/>
    </contour>
  </outline>
</glyph>
<glyph name="schwa" format="2">
  <advance width="718"/>
  <unicode hex="0259"/>
  <outline>
    <contour>
      <point x="620.0" y="503.0" type="qcurve" smooth="yes"/>
      <point x="557.0" y="268.0"/>
      <point x="331.0" y="-7.0"/>
      <point x="167.0" y="-7.0" type="qcurve" smooth="yes"/>
      <point x="69.0" y="-7.0"/>
      <point x="43.0" y="46.0"/>
      <point x="39.0" y="5.0" type="qcurve" smooth="yes"/>
      <point x="29.0" y="101.0"/>
      <point x="49.0" y="328.0"/>
      <point x="72.0" y="412.0" type="qcurve" smooth="yes"/>
      <point x="29.0" y="441.0" type="line"/>
      <point x="65.0" y="516.0" type="line"/>
      <point x="120.0" y="510.0"/>
      <point x="198.0" y="502.0"/>
      <point x="252.0" y="502.0" type="qcurve" smooth="yes"/>
      <point x="534.0" y="504.0" type="line"/>
      <point x="505.0" y="416.0" type="line"/>
      <point x="127.0" y="407.0" type="line"/>
      <point x="114.0" y="374.0"/>
      <point x="81.0" y="204.0"/>
      <point x="92.0" y="108.0" type="qcurve" smooth="yes"/>
      <point x="97.0" y="87.0"/>
      <point x="164.0" y="68.0"/>
      <point x="215.0" y="68.0" type="qcurve" smooth="yes"/>
      <point x="338.0" y="68.0"/>
      <point x="443.0" y="350.0"/>
      <point x="503.0" y="543.0" type="qcurve" smooth="yes"/>
      <point x="570.0" y="760.0"/>
      <point x="520.0" y="970.0"/>
      <point x="441.0" y="969.0" type="qcurve" smooth="yes"/>
      <point x="355.0" y="967.0"/>
      <point x="187.0" y="851.0"/>
      <point x="163.0" y="790.0" type="qcurve"/>
      <point x="75.0" y="755.0" type="line"/>
      <point x="86.0" y="828.0" type="line"/>
      <point x="156.0" y="942.0"/>
      <point x="352.0" y="1052.0"/>
      <point x="467.0" y="1055.0" type="qcurve" smooth="yes"/>
      <point x="622.0" y="1057.0"/>
      <point x="697.0" y="792.0"/>
    </contour>
  </outline>
</glyph>
<glyph name="primemod" format="2">
  <advance width="219"/>
  <unicode hex="02B9"/>
  <outline>
    <contour>
      <point x="282.0" y="1502.0" type="line"/>
      <point x="426.0" y="1502.0" type="line"/>
      <point x="269.0" y="991.0" type="line"/>
      <point x="177.0" y="996.0" type="line"/>
    </contour>
  </outline>
</glyph>
<glyph name="breve" format="2">
  <advance width="1024"/>
  <unicode hex="02D8"/>
  <outline>
    <contour>
      <point x="880.0" y="1407.0" type="qcurve"/>
      <point x="920.0" y="1383.0" type="line"/>
      <point x="877.0" y="1270.0"/>
      <point x="739.0" y="1136.0"/>
      <point x="617.0" y="1136.0" type="qcurve" smooth="yes"/>
      <point x="515.0" y="1136.0"/>
      <point x="406.0" y="1248.0"/>
      <point x="397.0" y="1380.0" type="qcurve"/>
      <point x="442.0" y="1393.0" type="line"/>
      <point x="457.0" y="1297.0"/>
      <point x="557.0" y="1222.0"/>
      <point x="631.0" y="1222.0" type="qcurve" smooth="yes"/>
      <point x="692.0" y="1222.0"/>
      <point x="815.0" y="1294.0"/>
    </contour>
  </outline>
</glyph>
<glyph name="tilde" format="2">
  <advance width="1024"/>
  <unicode hex="02DC"/>
  <outline>
    <contour>
      <point x="356.0" y="1256.0" type="line"/>
      <point x="391.0" y="1306.0"/>
      <point x="481.0" y="1374.0"/>
      <point x="536.0" y="1374.0" type="qcurve" smooth="yes"/>
      <point x="566.0" y="1374.0"/>
      <point x="616.0" y="1352.0"/>
      <point x="643.0" y="1332.0" type="qcurve" smooth="yes"/>
      <point x="660.0" y="1319.0"/>
      <point x="716.0" y="1277.0"/>
      <point x="747.0" y="1277.0" type="qcurve" smooth="yes"/>
      <point x="787.0" y="1277.0"/>
      <point x="865.0" y="1334.0"/>
      <point x="885.0" y="1363.0" type="qcurve"/>
      <point x="916.0" y="1309.0" type="line"/>
      <point x="874.0" y="1249.0"/>
      <point x="777.0" y="1179.0"/>
      <point x="726.0" y="1179.0" type="qcurve" smooth="yes"/>
      <point x="691.0" y="1179.0"/>
      <point x="626.0" y="1218.0"/>
      <point x="605.0" y="1235.0" type="qcurve" smooth="yes"/>
      <point x="584.0" y="1252.0"/>
      <point x="537.0" y="1282.0"/>
      <point x="516.0" y="1282.0" type="qcurve" smooth="yes"/>
      <point x="479.0" y="1282.0"/>
      <point x="401.0" y="1225.0"/>
      <point x="385.0" y="1204.0" type="qcurve"/>
    </contour>
  </outline>
</glyph>
<glyph name="endash" format="2">
  <advance width="1024"/>
  <unicode hex="2013"/>
  <outline>
    <contour>
      <point x="-25.0" y="591.0" type="line"/>
      <point x="-25.0" y="689.0" type="line"/>
      <point x="478.0" y="690.0" type="line"/>
      <point x="999.0" y="689.0" type="line"/>
      <point x="999.0" y="591.0" type="line"/>
      <point x="478.0" y="588.0" type="line"/>
    </contour>
  </outline>
</glyph>
<glyph name="numero" format="2">
  <advance width="1801"/>
  <unicode hex="2116"/>
  <outline>
    <contour>
      <point x="1243.0" y="459.0" type="qcurve" smooth="yes"/>
      <point x="1251.0" y="504.0"/>
      <point x="1260.0" y="505.0"/>
      <point x="1532.0" y="488.0" type="qcurve" smooth="yes"/>
      <point x="1815.0" y="469.0"/>
      <point x="1826.0" y="468.0"/>
      <point x="1816.0" y="421.0" type="qcurve" smooth="yes"/>
      <point x="1808.0" y="381.0"/>
      <point x="1799.0" y="381.0"/>
      <point x="1521.0" y="394.0" type="qcurve" smooth="yes"/>
      <point x="1244.0" y="406.0"/>
      <point x="1235.0" y="404.0"/>
    </contour>
    <contour>
      <point x="-36.0" y="0.0" type="line"/>
      <point x="-18.0" y="100.0" type="line"/>
      <point x="129.0" y="112.0" type="line"/>
      <point x="255.0" y="753.0" type="line"/>
      <point x="381.0" y="1385.0" type="line"/>
      <point x="223.0" y="1408.0" type="line"/>
      <point x="256.0" y="1500.0" type="line"/>
      <point x="532.0" y="1500.0" type="line"/>
      <point x="664.0" y="864.0" type="line"/>
      <point x="773.0" y="191.0" type="line"/>
      <point x="916.0" y="770.0" type="line"/>
      <point x="1042.0" y="1385.0" type="line"/>
      <point x="887.0" y="1412.0" type="line"/>
      <point x="900.0" y="1500.0" type="line"/>
      <point x="1341.0" y="1500.0" type="line"/>
      <point x="1329.0" y="1411.0" type="line"/>
      <point x="1183.0" y="1384.0" type="line"/>
      <point x="1044.0" y="753.0" type="line"/>
      <point x="870.0" y="-8.0" type="line"/>
      <point x="669.0" y="-8.0" type="line"/>
      <point x="568.0" y="742.0" type="line"/>
      <point x="484.0" y="1275.0" type="line"/>
      <point x="388.0" y="755.0" type="line"/>
      <point x="270.0" y="115.0" type="line"/>
      <point x="434.0" y="97.0" type="line"/>
      <point x="412.0" y="0.0" type="line"/>
    </contour>
    <contour>
      <point x="1347.0" y="1038.0" type="qcurve" smooth="yes"/>
      <point x="1378.0" y="1232.0"/>
      <point x="1576.0" y="1491.0"/>
      <point x="1699.0" y="1504.0" type="qcurve" smooth="yes"/>
      <point x="1829.0" y="1516.0"/>
      <point x="1935.0" y="1280.0"/>
      <point x="1903.0" y="1092.0" type="qcurve" smooth="yes"/>
      <point x="1869.0" y="889.0"/>
      <point x="1671.0" y="648.0"/>
      <point x="1557.0" y="635.0" type="qcurve" smooth="yes"/>
      <point x="1428.0" y="624.0"/>
      <point x="1315.0" y="851.0"/>
    </contour>
    <contour>
      <point x="1465.0" y="1053.0" type="qcurve" smooth="yes"/>
      <point x="1438.0" y="889.0"/>
      <point x="1515.0" y="724.0"/>
      <point x="1566.0" y="731.0" type="qcurve" smooth="yes"/>
      <point x="1612.0" y="734.0"/>
      <point x="1763.0" y="907.0"/>
      <point x="1792.0" y="1079.0" type="qcurve" smooth="yes"/>
      <point x="1809.0" y="1226.0"/>
      <point x="1744.0" y="1418.0"/>
      <point x="1685.0" y="1410.0" type="qcurve" smooth="yes"/>
      <point x="1646.0" y="1402.0"/>
      <point x="1498.0" y="1205.0"/>
    </contour>
  </outline>
</glyph>
<glyph name="bulletoperator" format="2">
  <advance width="1024"/>
  <unicode hex="2219"/>
  <outline>
    <contour>
      <point x="480.0" y="666.0" type="qcurve" smooth="yes"/>
      <point x="480.0" y="709.0"/>
      <point x="539.0" y="772.0"/>
      <point x="586.0" y="772.0" type="qcurve" smooth="yes"/>
      <point x="633.0" y="772.0"/>
      <point x="692.0" y="709.0"/>
      <point x="692.0" y="666.0" type="qcurve" smooth="yes"/>
      <point x="692.0" y="624.0"/>
      <point x="633.0" y="561.0"/>
      <point x="586.0" y="561.0" type="qcurve" smooth="yes"/>
      <point x="539.0" y="561.0"/>
      <point x="480.0" y="624.0"/>
    </contour>
  </outline>
</glyph>
<glyph name="brevebelowcomb.case" format="2">
  <advance width="1024"/>
  <outline>
    <contour>
      <point x="466.0" y="-181.0" type="qcurve"/>
      <point x="523.0" y="-209.0" type="line"/>
      <point x="476.0" y="-329.0"/>
      <point x="344.0" y="-474.0"/>
      <point x="206.0" y="-474.0" type="qcurve" smooth="yes"/>
      <point x="96.0" y="-474.0"/>
      <point x="-29.0" y="-338.0"/>
      <point x="-55.0" y="-215.0" type="qcurve"/>
      <point x="20.0" y="-201.0" type="line"/>
      <point x="35.0" y="-294.0"/>
      <point x="136.0" y="-379.0"/>
      <point x="231.0" y="-379.0" type="qcurve" smooth="yes"/>
      <point x="300.0" y="-379.0"/>
      <point x="399.0" y="-309.0"/>
    </contour>
  </outline>
</glyph>
<glyph name="brevecomb.case" format="2">
  <advance width="1024"/>
  <outline>
    <contour>
      <point x="883.0" y="1863.0" type="qcurve"/>
      <point x="912.0" y="1849.0" type="line"/>
      <point x="875.0" y="1755.0"/>
      <point x="693.0" y="1584.0"/>
      <point x="595.0" y="1584.0" type="qcurve" smooth="yes"/>
      <point x="485.0" y="1584.0"/>
      <point x="380.0" y="1722.0"/>
      <point x="392.0" y="1851.0" type="qcurve"/>
      <point x="409.0" y="1857.0" type="line"/>
      <point x="424.0" y="1764.0"/>
      <point x="525.0" y="1679.0"/>
      <point x="620.0" y="1679.0" type="qcurve" smooth="yes"/>
      <point x="709.0" y="1679.0"/>
      <point x="844.0" y="1781.0"/>
    </contour>
  </outline>
</glyph>
<glyph name="commaaccentcomb" format="2">
  <advance width="1024"/>
  <outline>
    <contour>
      <point x="274.0" y="-369.0" type="qcurve"/>
      <point x="298.0" y="-400.0" type="line"/>
      <point x="363.0" y="-360.0"/>
      <point x="446.0" y="-261.0"/>
      <point x="446.0" y="-198.0" type="qcurve" smooth="yes"/>
      <point x="446.0" y="-155.0"/>
      <point x="408.0" y="-122.0"/>
      <point x="380.0" y="-122.0" type="qcurve" smooth="yes"/>
      <point x="349.0" y="-122.0"/>
      <point x="309.0" y="-164.0"/>
      <point x="309.0" y="-194.0" type="qcurve" smooth="yes"/>
      <point x="309.0" y="-223.0"/>
      <point x="342.0" y="-261.0"/>
      <point x="378.0" y="-261.0" type="qcurve"/>
      <point x="366.0" y="-291.0"/>
      <point x="310.0" y="-345.0"/>
    </contour>
  </outline>
</glyph>
<glyph name="eight.tab" format="2">
  <advance width="860"/>
  <outline>
    <contour>
      <point x="75.0" y="322.0" type="qcurve" smooth="yes"/>
      <point x="75.0" y="489.0"/>
      <point x="281.0" y="788.0"/>
      <point x="482.0" y="885.0" type="qcurve"/>
      <point x="548.0" y="808.0" type="line"/>
      <point x="374.0" y="717.0"/>
      <point x="199.0" y="491.0"/>
      <point x="199.0" y="333.0" type="qcurve" smooth="yes"/>
      <point x="199.0" y="214.0"/>
      <point x="302.0" y="85.0"/>
      <point x="419.0" y="85.0" type="qcurve" smooth="yes"/>
      <point x="575.0" y="85.0"/>
      <point x="702.0" y="251.0"/>
      <point x="704.0" y="408.0" type="qcurve" smooth="yes"/>
      <point x="706.0" y="521.0"/>
      <point x="578.0" y="734.0"/>
      <point x="477.0" y="806.0" type="qcurve" smooth="yes"/>
      <point x="397.0" y="866.0"/>
      <point x="280.0" y="1041.0"/>
      <point x="280.0" y="1177.0" type="qcurve" smooth="yes"/>
      <point x="280.0" y="1331.0"/>
      <point x="474.0" y="1543.0"/>
      <point x="636.0" y="1543.0" type="qcurve" smooth="yes"/>
      <point x="786.0" y="1543.0"/>
      <point x="917.0" y="1373.0"/>
      <point x="917.0" y="1247.0" type="qcurve" smooth="yes"/>
      <point x="917.0" y="1078.0"/>
      <point x="721.0" y="899.0"/>
      <point x="576.0" y="810.0" type="qcurve"/>
      <point x="515.0" y="892.0" type="line"/>
      <point x="652.0" y="973.0"/>
      <point x="834.0" y="1135.0"/>
      <point x="839.0" y="1226.0" type="qcurve" smooth="yes"/>
      <point x="844.0" y="1323.0"/>
      <point x="736.0" y="1441.0"/>
      <point x="629.0" y="1441.0" type="qcurve" smooth="yes"/>
      <point x="524.0" y="1441.0"/>
      <point x="387.0" y="1301.0"/>
      <point x="387.0" y="1192.0" type="qcurve" smooth="yes"/>
      <point x="387.0" y="1083.0"/>
      <point x="520.0" y="929.0"/>
      <point x="631.0" y="835.0" type="qcurve" smooth="yes"/>
      <point x="781.0" y="713.0"/>
      <point x="809.0" y="542.0"/>
      <point x="809.0" y="388.0" type="qcurve" smooth="yes"/>
      <point x="809.0" y="177.0"/>
      <point x="609.0" y="-17.0"/>
      <point x="400.0" y="-17.0" type="qcurve" smooth="yes"/>
      <point x="240.0" y="-17.0"/>
      <point x="75.0" y="170.0"/>
    </contour>
  </outline>
</glyph>
<glyph name="five.tab" format="2">
  <advance width="860"/>
  <outline>
    <contour>
      <point x="30.0" y="221.0" type="qcurve" smooth="yes"/>
      <point x="30.0" y="268.0"/>
      <point x="84.0" y="367.0"/>
      <point x="116.0" y="383.0" type="qcurve"/>
      <point x="129.0" y="382.0" type="line"/>
      <point x="126.0" y="313.0" type="line" smooth="yes"/>
      <point x="122.0" y="139.0"/>
      <point x="245.0" y="76.0"/>
      <point x="343.0" y="74.0" type="qcurve" smooth="yes"/>
      <point x="497.0" y="76.0"/>
      <point x="751.0" y="352.0"/>
      <point x="769.0" y="550.0" type="qcurve" smooth="yes"/>
      <point x="785.0" y="759.0"/>
      <point x="560.0" y="910.0"/>
      <point x="293.0" y="817.0" type="qcurve" smooth="yes"/>
      <point x="223.0" y="789.0" type="line"/>
      <point x="182.0" y="857.0" type="line"/>
      <point x="336.0" y="1433.0" type="line"/>
      <point x="418.0" y="1500.0" type="line"/>
      <point x="943.0" y="1500.0" type="line"/>
      <point x="913.0" y="1404.0" type="line"/>
      <point x="437.0" y="1404.0" type="line"/>
      <point x="427.0" y="1393.0" type="line"/>
      <point x="376.0" y="1203.0"/>
      <point x="302.0" y="945.0"/>
      <point x="286.0" y="911.0" type="qcurve"/>
      <point x="500.0" y="959.0" type="line"/>
      <point x="649.0" y="983.0"/>
      <point x="867.0" y="792.0"/>
      <point x="854.0" y="597.0" type="qcurve" smooth="yes"/>
      <point x="837.0" y="343.0"/>
      <point x="551.0" y="-17.0"/>
      <point x="334.0" y="-17.0" type="qcurve" smooth="yes"/>
      <point x="148.0" y="-17.0"/>
      <point x="30.0" y="96.0"/>
    </contour>
  </outline>
</glyph>
<glyph name="seven.tab" format="2">
  <advance width="860"/>
  <outline>
    <contour>
      <point x="209.0" y="1229.0" type="line"/>
      <point x="268.0" y="1500.0" type="line"/>
      <point x="1039.0" y="1500.0" type="line"/>
      <point x="1065.0" y="1397.0" type="line"/>
      <point x="721.0" y="1004.0"/>
      <point x="317.0" y="292.0"/>
      <point x="267.0" y="-16.0" type="qcurve"/>
      <point x="188.0" y="-28.0" type="line"/>
      <point x="168.0" y="14.0" type="line"/>
      <point x="317.0" y="453.0"/>
      <point x="523.0" y="953.0"/>
      <point x="904.0" y="1378.0" type="qcurve"/>
      <point x="892.0" y="1392.0" type="line"/>
      <point x="336.0" y="1394.0" type="line"/>
      <point x="286.0" y="1229.0" type="line"/>
    </contour>
  </outline>
</glyph>
